<svg xmlns="http://www.w3.org/2000/svg" xmlns:xlink="http://www.w3.org/1999/xlink" width="1366" zoomAndPan="magnify" viewBox="0 0 1024.5 576" height="768" preserveAspectRatio="xMidYMid meet" version="1.0"><defs><clipPath id="d100a4220d"><path d="M 287.503906 152 L 694.753906 152 L 694.753906 447 L 287.503906 447 Z M 287.503906 152 " clip-rule="nonzero"/></clipPath></defs><g clip-path="url(#d100a4220d)"><path fill="#3dcbc5" d="M 693.800781 437.523438 L 668.195312 383.152344 L 668.195312 158.566406 C 668.195312 158.132812 668.152344 157.707031 668.066406 157.285156 C 667.984375 156.863281 667.859375 156.453125 667.695312 156.058594 C 667.53125 155.660156 667.328125 155.28125 667.089844 154.925781 C 666.847656 154.566406 666.578125 154.234375 666.273438 153.933594 C 665.96875 153.628906 665.636719 153.355469 665.28125 153.117188 C 664.921875 152.878906 664.542969 152.675781 664.144531 152.511719 C 663.746094 152.347656 663.335938 152.222656 662.914062 152.136719 C 662.492188 152.054688 662.066406 152.011719 661.636719 152.011719 L 320.621094 152.011719 C 320.191406 152.011719 319.765625 152.054688 319.34375 152.136719 C 318.917969 152.222656 318.511719 152.347656 318.113281 152.511719 C 317.714844 152.675781 317.335938 152.878906 316.976562 153.117188 C 316.621094 153.355469 316.289062 153.628906 315.984375 153.929688 C 315.679688 154.234375 315.40625 154.566406 315.167969 154.925781 C 314.929688 155.28125 314.726562 155.660156 314.5625 156.058594 C 314.398438 156.453125 314.273438 156.863281 314.191406 157.285156 C 314.105469 157.707031 314.0625 158.132812 314.0625 158.566406 L 314.0625 383.152344 L 288.457031 437.523438 C 288.339844 437.773438 288.238281 438.027344 288.152344 438.289062 C 288.066406 438.550781 288 438.816406 287.949219 439.085938 C 287.898438 439.355469 287.863281 439.625 287.84375 439.902344 C 287.828125 440.175781 287.828125 440.449219 287.84375 440.722656 C 287.863281 441 287.898438 441.269531 287.949219 441.539062 C 288 441.808594 288.066406 442.074219 288.152344 442.335938 C 288.238281 442.597656 288.339844 442.855469 288.457031 443.101562 C 288.574219 443.351562 288.707031 443.589844 288.851562 443.824219 C 289 444.054688 289.160156 444.277344 289.335938 444.488281 C 289.511719 444.699219 289.699219 444.902344 289.902344 445.089844 C 290.101562 445.277344 290.3125 445.453125 290.535156 445.613281 C 290.757812 445.773438 290.988281 445.921875 291.230469 446.054688 C 291.472656 446.1875 291.71875 446.304688 291.976562 446.40625 C 292.230469 446.507812 292.492188 446.589844 292.757812 446.660156 C 293.023438 446.726562 293.296875 446.777344 293.566406 446.8125 C 293.839844 446.847656 294.113281 446.863281 294.390625 446.863281 L 687.867188 446.863281 C 688.144531 446.863281 688.417969 446.847656 688.691406 446.8125 C 688.960938 446.777344 689.234375 446.726562 689.5 446.660156 C 689.765625 446.589844 690.027344 446.507812 690.28125 446.40625 C 690.539062 446.304688 690.785156 446.1875 691.027344 446.054688 C 691.269531 445.921875 691.5 445.773438 691.722656 445.613281 C 691.945312 445.453125 692.15625 445.277344 692.355469 445.089844 C 692.558594 444.902344 692.746094 444.699219 692.921875 444.488281 C 693.097656 444.277344 693.257812 444.054688 693.40625 443.824219 C 693.550781 443.589844 693.683594 443.351562 693.800781 443.101562 C 693.917969 442.855469 694.019531 442.597656 694.105469 442.335938 C 694.191406 442.074219 694.257812 441.808594 694.308594 441.539062 C 694.359375 441.269531 694.394531 441 694.414062 440.722656 C 694.429688 440.449219 694.429688 440.175781 694.414062 439.902344 C 694.394531 439.625 694.359375 439.355469 694.308594 439.085938 C 694.257812 438.816406 694.191406 438.550781 694.105469 438.289062 C 694.019531 438.027344 693.917969 437.773438 693.800781 437.523438 Z M 327.179688 165.117188 L 655.078125 165.117188 L 655.078125 378.066406 L 327.179688 378.066406 Z M 304.722656 433.761719 L 324.78125 391.171875 L 657.476562 391.171875 L 677.535156 433.761719 Z M 590.960938 278.707031 C 591.625 277.921875 592.261719 277.117188 592.875 276.292969 C 593.484375 275.46875 594.070312 274.625 594.632812 273.765625 C 595.191406 272.902344 595.722656 272.027344 596.226562 271.132812 C 596.730469 270.238281 597.207031 269.328125 597.652344 268.402344 C 598.097656 267.476562 598.515625 266.539062 598.90625 265.589844 C 599.292969 264.640625 599.652344 263.675781 599.980469 262.703125 C 600.308594 261.730469 600.605469 260.75 600.871094 259.757812 C 601.136719 258.765625 601.371094 257.765625 601.574219 256.761719 C 601.777344 255.753906 601.949219 254.742188 602.089844 253.726562 C 602.230469 252.707031 602.339844 251.6875 602.414062 250.664062 C 602.492188 249.640625 602.535156 248.613281 602.546875 247.589844 C 602.558594 246.5625 602.539062 245.535156 602.484375 244.511719 C 602.433594 243.484375 602.347656 242.460938 602.230469 241.441406 C 602.113281 240.421875 601.964844 239.40625 601.785156 238.394531 C 601.605469 237.386719 601.394531 236.382812 601.148438 235.382812 C 600.90625 234.386719 600.632812 233.398438 600.324219 232.417969 C 600.019531 231.4375 599.683594 230.46875 599.316406 229.507812 C 598.953125 228.546875 598.554688 227.601562 598.128906 226.667969 C 597.703125 225.734375 597.25 224.8125 596.765625 223.90625 C 596.28125 223 595.769531 222.109375 595.230469 221.238281 C 594.691406 220.363281 594.125 219.507812 593.535156 218.667969 C 592.941406 217.832031 592.320312 217.011719 591.675781 216.210938 C 591.03125 215.410156 590.363281 214.632812 589.671875 213.875 C 588.976562 213.117188 588.261719 212.382812 587.523438 211.667969 C 586.78125 210.957031 586.019531 210.265625 585.238281 209.601562 C 584.457031 208.9375 583.652344 208.296875 582.832031 207.679688 C 582.007812 207.066406 581.167969 206.476562 580.304688 205.914062 C 579.445312 205.351562 578.570312 204.816406 577.675781 204.3125 C 576.785156 203.804688 575.875 203.324219 574.953125 202.875 C 574.027344 202.421875 573.09375 202.003906 572.140625 201.609375 C 571.191406 201.21875 570.230469 200.855469 569.257812 200.523438 C 568.285156 200.191406 567.304688 199.890625 566.3125 199.621094 C 565.320312 199.351562 564.324219 199.113281 563.316406 198.90625 C 562.308594 198.699219 561.296875 198.523438 560.28125 198.378906 C 559.261719 198.234375 558.242188 198.121094 557.21875 198.039062 C 556.195312 197.960938 555.167969 197.914062 554.140625 197.894531 C 553.113281 197.878906 552.085938 197.894531 551.058594 197.945312 C 550.03125 197.992188 549.007812 198.074219 547.988281 198.183594 C 546.964844 198.296875 545.949219 198.441406 544.9375 198.617188 C 543.925781 198.792969 542.917969 199 541.917969 199.242188 C 540.921875 199.480469 539.929688 199.75 538.945312 200.050781 C 537.964844 200.351562 536.992188 200.683594 536.03125 201.046875 C 535.070312 201.40625 534.121094 201.800781 533.183594 202.222656 C 532.246094 202.640625 531.324219 203.09375 530.414062 203.570312 C 529.503906 204.050781 528.613281 204.558594 527.734375 205.09375 C 526.859375 205.628906 526 206.191406 525.15625 206.78125 C 524.316406 207.367188 523.492188 207.984375 522.691406 208.625 C 521.886719 209.265625 521.105469 209.929688 520.34375 210.621094 C 519.582031 211.308594 518.84375 212.019531 518.128906 212.757812 C 517.410156 213.492188 516.71875 214.25 516.046875 215.03125 C 515.378906 215.808594 514.734375 216.609375 514.117188 217.425781 C 513.496094 218.246094 512.90625 219.085938 512.339844 219.941406 C 511.773438 220.796875 511.234375 221.671875 510.722656 222.5625 C 510.210938 223.453125 509.726562 224.359375 509.269531 225.277344 C 508.816406 226.199219 508.390625 227.132812 507.996094 228.082031 C 507.597656 229.027344 507.234375 229.988281 506.894531 230.957031 C 506.558594 231.925781 506.253906 232.90625 505.980469 233.898438 C 505.707031 234.886719 505.460938 235.882812 505.25 236.886719 C 505.039062 237.890625 504.859375 238.902344 504.710938 239.917969 C 504.5625 240.933594 504.445312 241.953125 504.359375 242.976562 C 504.273438 244 504.222656 245.023438 504.203125 246.050781 C 504.179688 247.078125 504.195312 248.105469 504.238281 249.128906 C 504.28125 250.15625 504.359375 251.179688 504.464844 252.199219 C 504.574219 253.222656 504.714844 254.238281 504.886719 255.25 C 505.058594 256.261719 505.261719 257.269531 505.496094 258.265625 C 505.730469 259.265625 505.996094 260.257812 506.296875 261.242188 C 506.59375 262.222656 506.921875 263.195312 507.277344 264.15625 C 507.636719 265.121094 508.023438 266.070312 508.441406 267.007812 C 508.859375 267.945312 509.308594 268.871094 509.78125 269.78125 C 510.257812 270.691406 510.761719 271.585938 511.292969 272.460938 C 511.828125 273.339844 512.386719 274.203125 512.972656 275.046875 C 513.558594 275.890625 514.167969 276.714844 514.808594 277.519531 C 515.445312 278.324219 516.105469 279.109375 516.792969 279.871094 C 517.480469 280.636719 518.191406 281.375 518.925781 282.09375 C 519.65625 282.816406 520.414062 283.511719 521.191406 284.183594 C 521.96875 284.855469 522.765625 285.5 523.582031 286.121094 C 524.398438 286.746094 525.234375 287.339844 526.089844 287.910156 C 526.945312 288.480469 527.816406 289.019531 528.707031 289.535156 C 529.597656 290.050781 530.5 290.539062 531.417969 290.996094 C 532.339844 291.453125 533.273438 291.882812 534.21875 292.28125 C 535.164062 292.683594 536.125 293.054688 537.09375 293.394531 C 538.0625 293.734375 539.042969 294.042969 540.03125 294.320312 C 541.019531 294.597656 542.015625 294.847656 543.019531 295.0625 C 544.027344 295.277344 545.035156 295.460938 546.050781 295.617188 C 547.070312 295.769531 548.089844 295.890625 549.113281 295.976562 C 550.136719 296.066406 551.160156 296.125 552.1875 296.148438 C 553.214844 296.171875 554.242188 296.164062 555.269531 296.125 C 556.296875 296.085938 557.320312 296.015625 558.34375 295.910156 C 559.367188 295.808594 560.382812 295.671875 561.398438 295.503906 C 562.410156 295.335938 563.417969 295.136719 564.421875 294.90625 C 565.421875 294.675781 566.414062 294.414062 567.398438 294.121094 C 568.382812 293.828125 569.359375 293.503906 570.324219 293.152344 C 571.289062 292.796875 572.242188 292.414062 573.179688 292 C 574.121094 291.585938 575.046875 291.144531 575.960938 290.671875 C 576.875 290.199219 577.769531 289.699219 578.652344 289.171875 C 579.535156 288.644531 580.398438 288.089844 581.246094 287.507812 L 610.867188 320.214844 C 611.15625 320.535156 611.472656 320.820312 611.820312 321.078125 C 612.164062 321.335938 612.53125 321.554688 612.921875 321.738281 C 613.3125 321.925781 613.714844 322.070312 614.132812 322.171875 C 614.550781 322.277344 614.972656 322.339844 615.402344 322.363281 C 615.832031 322.382812 616.261719 322.363281 616.6875 322.300781 C 617.113281 322.238281 617.527344 322.132812 617.933594 321.988281 C 618.339844 321.84375 618.726562 321.664062 619.097656 321.441406 C 619.464844 321.222656 619.8125 320.964844 620.128906 320.675781 C 620.449219 320.390625 620.738281 320.070312 620.992188 319.726562 C 621.25 319.382812 621.472656 319.015625 621.65625 318.625 C 621.839844 318.238281 621.984375 317.832031 622.089844 317.417969 C 622.195312 317 622.257812 316.574219 622.28125 316.144531 C 622.300781 315.714844 622.28125 315.289062 622.21875 314.863281 C 622.15625 314.4375 622.050781 314.023438 621.90625 313.617188 C 621.761719 313.210938 621.578125 312.824219 621.359375 312.457031 C 621.136719 312.085938 620.882812 311.742188 620.59375 311.421875 Z M 517.359375 247.019531 C 517.359375 245.839844 517.417969 244.664062 517.535156 243.488281 C 517.648438 242.3125 517.824219 241.148438 518.054688 239.988281 C 518.285156 238.832031 518.570312 237.6875 518.914062 236.558594 C 519.257812 235.429688 519.652344 234.320312 520.105469 233.230469 C 520.558594 232.140625 521.0625 231.074219 521.621094 230.03125 C 522.175781 228.992188 522.78125 227.980469 523.4375 227 C 524.097656 226.019531 524.796875 225.070312 525.546875 224.160156 C 526.296875 223.246094 527.089844 222.371094 527.925781 221.539062 C 528.761719 220.703125 529.632812 219.910156 530.546875 219.164062 C 531.460938 218.414062 532.410156 217.710938 533.390625 217.054688 C 534.371094 216.402344 535.386719 215.792969 536.425781 215.238281 C 537.46875 214.683594 538.535156 214.179688 539.625 213.726562 C 540.71875 213.273438 541.828125 212.878906 542.960938 212.535156 C 544.089844 212.191406 545.234375 211.90625 546.394531 211.675781 C 547.550781 211.445312 548.71875 211.273438 549.894531 211.15625 C 551.070312 211.039062 552.25 210.984375 553.429688 210.984375 C 554.609375 210.984375 555.789062 211.039062 556.964844 211.15625 C 558.140625 211.273438 559.308594 211.445312 560.464844 211.675781 C 561.625 211.90625 562.769531 212.191406 563.898438 212.535156 C 565.03125 212.878906 566.140625 213.273438 567.234375 213.726562 C 568.324219 214.179688 569.390625 214.683594 570.433594 215.238281 C 571.472656 215.792969 572.484375 216.402344 573.46875 217.054688 C 574.449219 217.710938 575.398438 218.414062 576.3125 219.164062 C 577.222656 219.910156 578.097656 220.703125 578.933594 221.539062 C 579.769531 222.371094 580.5625 223.246094 581.3125 224.160156 C 582.0625 225.070312 582.761719 226.019531 583.417969 227 C 584.074219 227.980469 584.683594 228.992188 585.238281 230.03125 C 585.796875 231.074219 586.300781 232.140625 586.753906 233.230469 C 587.203125 234.320312 587.601562 235.429688 587.945312 236.558594 C 588.289062 237.6875 588.574219 238.832031 588.804688 239.988281 C 589.035156 241.148438 589.207031 242.3125 589.324219 243.488281 C 589.441406 244.664062 589.5 245.839844 589.5 247.019531 C 589.5 248.199219 589.441406 249.378906 589.324219 250.554688 C 589.207031 251.726562 589.035156 252.894531 588.804688 254.050781 C 588.574219 255.207031 588.289062 256.351562 587.945312 257.480469 C 587.601562 258.609375 587.203125 259.722656 586.753906 260.8125 C 586.300781 261.902344 585.796875 262.96875 585.238281 264.007812 C 584.683594 265.050781 584.074219 266.058594 583.417969 267.042969 C 582.761719 268.023438 582.0625 268.96875 581.3125 269.882812 C 580.5625 270.792969 579.769531 271.667969 578.933594 272.503906 C 578.097656 273.335938 577.222656 274.128906 576.3125 274.878906 C 575.398438 275.625 574.449219 276.328125 573.46875 276.984375 C 572.484375 277.640625 571.472656 278.246094 570.433594 278.800781 C 569.390625 279.359375 568.324219 279.863281 567.234375 280.316406 C 566.140625 280.765625 565.03125 281.164062 563.898438 281.507812 C 562.769531 281.847656 561.625 282.136719 560.464844 282.367188 C 559.308594 282.597656 558.140625 282.769531 556.964844 282.882812 C 555.789062 283 554.609375 283.058594 553.429688 283.058594 C 552.25 283.058594 551.070312 282.996094 549.894531 282.878906 C 548.71875 282.765625 547.554688 282.589844 546.394531 282.359375 C 545.238281 282.128906 544.09375 281.839844 542.964844 281.496094 C 541.835938 281.152344 540.722656 280.757812 539.632812 280.304688 C 538.542969 279.851562 537.476562 279.347656 536.433594 278.789062 C 535.394531 278.234375 534.382812 277.628906 533.402344 276.972656 C 532.417969 276.316406 531.472656 275.613281 530.558594 274.867188 C 529.644531 274.117188 528.773438 273.324219 527.9375 272.492188 C 527.101562 271.65625 526.308594 270.785156 525.558594 269.871094 C 524.8125 268.960938 524.109375 268.011719 523.453125 267.03125 C 522.796875 266.050781 522.1875 265.039062 521.632812 264 C 521.074219 262.960938 520.570312 261.894531 520.117188 260.804688 C 519.664062 259.714844 519.265625 258.605469 518.921875 257.476562 C 518.578125 256.347656 518.292969 255.207031 518.058594 254.046875 C 517.828125 252.890625 517.65625 251.726562 517.539062 250.550781 C 517.421875 249.378906 517.363281 248.199219 517.359375 247.019531 Z M 359.96875 214.257812 C 359.96875 213.828125 360.011719 213.402344 360.09375 212.980469 C 360.179688 212.558594 360.304688 212.148438 360.46875 211.75 C 360.632812 211.355469 360.835938 210.976562 361.074219 210.617188 C 361.3125 210.261719 361.585938 209.929688 361.890625 209.625 C 362.195312 209.320312 362.527344 209.050781 362.882812 208.8125 C 363.242188 208.570312 363.621094 208.371094 364.019531 208.207031 C 364.414062 208.039062 364.824219 207.917969 365.246094 207.832031 C 365.671875 207.75 366.097656 207.707031 366.527344 207.707031 L 468.175781 207.707031 C 468.605469 207.707031 469.03125 207.75 469.457031 207.832031 C 469.878906 207.917969 470.289062 208.039062 470.6875 208.207031 C 471.082031 208.371094 471.460938 208.570312 471.820312 208.8125 C 472.175781 209.050781 472.507812 209.320312 472.8125 209.625 C 473.117188 209.929688 473.390625 210.261719 473.628906 210.617188 C 473.867188 210.976562 474.070312 211.355469 474.234375 211.75 C 474.398438 212.148438 474.523438 212.558594 474.609375 212.980469 C 474.691406 213.402344 474.734375 213.828125 474.734375 214.257812 C 474.734375 214.6875 474.691406 215.117188 474.609375 215.539062 C 474.523438 215.960938 474.398438 216.367188 474.234375 216.765625 C 474.070312 217.164062 473.867188 217.542969 473.628906 217.898438 C 473.390625 218.257812 473.117188 218.589844 472.8125 218.890625 C 472.507812 219.195312 472.175781 219.46875 471.820312 219.707031 C 471.460938 219.945312 471.082031 220.148438 470.6875 220.3125 C 470.289062 220.476562 469.878906 220.601562 469.457031 220.683594 C 469.03125 220.769531 468.605469 220.8125 468.175781 220.8125 L 366.527344 220.8125 C 366.097656 220.8125 365.671875 220.769531 365.246094 220.683594 C 364.824219 220.601562 364.414062 220.476562 364.019531 220.3125 C 363.621094 220.148438 363.242188 219.945312 362.882812 219.707031 C 362.527344 219.46875 362.195312 219.195312 361.890625 218.890625 C 361.585938 218.589844 361.3125 218.257812 361.074219 217.898438 C 360.835938 217.542969 360.632812 217.164062 360.46875 216.765625 C 360.304688 216.367188 360.179688 215.960938 360.09375 215.539062 C 360.011719 215.117188 359.96875 214.6875 359.96875 214.257812 Z M 359.96875 269.953125 C 359.96875 269.523438 360.011719 269.097656 360.09375 268.675781 C 360.179688 268.253906 360.304688 267.84375 360.46875 267.445312 C 360.632812 267.046875 360.835938 266.671875 361.074219 266.3125 C 361.3125 265.957031 361.585938 265.625 361.890625 265.320312 C 362.195312 265.015625 362.527344 264.746094 362.882812 264.503906 C 363.242188 264.265625 363.621094 264.066406 364.019531 263.898438 C 364.414062 263.734375 364.824219 263.609375 365.246094 263.527344 C 365.671875 263.441406 366.097656 263.402344 366.527344 263.402344 L 468.175781 263.402344 C 468.605469 263.402344 469.03125 263.441406 469.457031 263.527344 C 469.878906 263.609375 470.289062 263.734375 470.6875 263.898438 C 471.082031 264.066406 471.460938 264.265625 471.820312 264.503906 C 472.175781 264.746094 472.507812 265.015625 472.8125 265.320312 C 473.117188 265.625 473.390625 265.957031 473.628906 266.3125 C 473.867188 266.671875 474.070312 267.046875 474.234375 267.445312 C 474.398438 267.84375 474.523438 268.253906 474.609375 268.675781 C 474.691406 269.097656 474.734375 269.523438 474.734375 269.953125 C 474.734375 270.382812 474.691406 270.808594 474.609375 271.230469 C 474.523438 271.652344 474.398438 272.0625 474.234375 272.460938 C 474.070312 272.859375 473.867188 273.234375 473.628906 273.59375 C 473.390625 273.953125 473.117188 274.28125 472.8125 274.585938 C 472.507812 274.890625 472.175781 275.164062 471.820312 275.402344 C 471.460938 275.640625 471.082031 275.84375 470.6875 276.007812 C 470.289062 276.171875 469.878906 276.296875 469.457031 276.378906 C 469.03125 276.464844 468.605469 276.503906 468.175781 276.503906 L 366.527344 276.503906 C 366.097656 276.503906 365.671875 276.464844 365.246094 276.378906 C 364.824219 276.296875 364.414062 276.171875 364.019531 276.007812 C 363.621094 275.84375 363.242188 275.640625 362.882812 275.402344 C 362.527344 275.164062 362.195312 274.890625 361.890625 274.585938 C 361.585938 274.28125 361.3125 273.953125 361.074219 273.59375 C 360.835938 273.234375 360.632812 272.859375 360.46875 272.460938 C 360.304688 272.0625 360.179688 271.652344 360.09375 271.230469 C 360.011719 270.808594 359.96875 270.382812 359.96875 269.953125 Z M 550.152344 325.648438 C 550.152344 326.078125 550.109375 326.503906 550.023438 326.925781 C 549.941406 327.347656 549.816406 327.757812 549.652344 328.15625 C 549.488281 328.550781 549.285156 328.929688 549.046875 329.289062 C 548.804688 329.644531 548.535156 329.976562 548.230469 330.28125 C 547.925781 330.585938 547.59375 330.855469 547.234375 331.097656 C 546.878906 331.335938 546.5 331.535156 546.101562 331.703125 C 545.703125 331.867188 545.292969 331.988281 544.871094 332.074219 C 544.449219 332.15625 544.023438 332.199219 543.59375 332.199219 L 366.527344 332.199219 C 366.097656 332.199219 365.671875 332.15625 365.246094 332.074219 C 364.824219 331.988281 364.414062 331.867188 364.019531 331.703125 C 363.621094 331.535156 363.242188 331.335938 362.882812 331.097656 C 362.527344 330.855469 362.195312 330.585938 361.890625 330.28125 C 361.585938 329.976562 361.3125 329.644531 361.074219 329.289062 C 360.835938 328.929688 360.632812 328.550781 360.46875 328.15625 C 360.304688 327.757812 360.179688 327.347656 360.09375 326.925781 C 360.011719 326.503906 359.96875 326.078125 359.96875 325.648438 C 359.96875 325.21875 360.011719 324.792969 360.09375 324.371094 C 360.179688 323.949219 360.304688 323.539062 360.46875 323.140625 C 360.632812 322.742188 360.835938 322.367188 361.074219 322.007812 C 361.3125 321.648438 361.585938 321.320312 361.890625 321.015625 C 362.195312 320.710938 362.527344 320.4375 362.882812 320.199219 C 363.242188 319.960938 363.621094 319.757812 364.019531 319.59375 C 364.414062 319.429688 364.824219 319.304688 365.246094 319.222656 C 365.671875 319.136719 366.097656 319.09375 366.527344 319.09375 L 543.59375 319.09375 C 544.023438 319.09375 544.449219 319.136719 544.871094 319.222656 C 545.292969 319.304688 545.703125 319.429688 546.101562 319.59375 C 546.5 319.757812 546.878906 319.960938 547.234375 320.199219 C 547.59375 320.4375 547.925781 320.710938 548.230469 321.015625 C 548.535156 321.320312 548.804688 321.648438 549.046875 322.007812 C 549.285156 322.367188 549.488281 322.742188 549.652344 323.140625 C 549.816406 323.539062 549.941406 323.949219 550.023438 324.371094 C 550.109375 324.792969 550.152344 325.21875 550.152344 325.648438 Z M 693.800781 437.523438 L 668.195312 383.152344 L 668.195312 158.566406 C 668.195312 158.132812 668.152344 157.707031 668.066406 157.285156 C 667.984375 156.863281 667.859375 156.453125 667.695312 156.058594 C 667.53125 155.660156 667.328125 155.28125 667.089844 154.925781 C 666.847656 154.566406 666.578125 154.234375 666.273438 153.933594 C 665.96875 153.628906 665.636719 153.355469 665.28125 153.117188 C 664.921875 152.878906 664.542969 152.675781 664.144531 152.511719 C 663.746094 152.347656 663.335938 152.222656 662.914062 152.136719 C 662.492188 152.054688 662.066406 152.011719 661.636719 152.011719 L 320.621094 152.011719 C 320.191406 152.011719 319.765625 152.054688 319.34375 152.136719 C 318.917969 152.222656 318.511719 152.347656 318.113281 152.511719 C 317.714844 152.675781 317.335938 152.878906 316.976562 153.117188 C 316.621094 153.355469 316.289062 153.628906 315.984375 153.929688 C 315.679688 154.234375 315.40625 154.566406 315.167969 154.925781 C 314.929688 155.28125 314.726562 155.660156 314.5625 156.058594 C 314.398438 156.453125 314.273438 156.863281 314.191406 157.285156 C 314.105469 157.707031 314.0625 158.132812 314.0625 158.566406 L 314.0625 383.152344 L 288.457031 437.523438 C 288.339844 437.773438 288.238281 438.027344 288.152344 438.289062 C 288.066406 438.550781 288 438.816406 287.949219 439.085938 C 287.898438 439.355469 287.863281 439.625 287.84375 439.902344 C 287.828125 440.175781 287.828125 440.449219 287.84375 440.722656 C 287.863281 441 287.898438 441.269531 287.949219 441.539062 C 288 441.808594 288.066406 442.074219 288.152344 442.335938 C 288.238281 442.597656 288.339844 442.855469 288.457031 443.101562 C 288.574219 443.351562 288.707031 443.589844 288.851562 443.824219 C 289 444.054688 289.160156 444.277344 289.335938 444.488281 C 289.511719 444.699219 289.699219 444.902344 289.902344 445.089844 C 290.101562 445.277344 290.3125 445.453125 290.535156 445.613281 C 290.757812 445.773438 290.988281 445.921875 291.230469 446.054688 C 291.472656 446.1875 291.71875 446.304688 291.976562 446.40625 C 292.230469 446.507812 292.492188 446.589844 292.757812 446.660156 C 293.023438 446.726562 293.296875 446.777344 293.566406 446.8125 C 293.839844 446.847656 294.113281 446.863281 294.390625 446.863281 L 687.867188 446.863281 C 688.144531 446.863281 688.417969 446.847656 688.691406 446.8125 C 688.960938 446.777344 689.234375 446.726562 689.5 446.660156 C 689.765625 446.589844 690.027344 446.507812 690.28125 446.40625 C 690.539062 446.304688 690.785156 446.1875 691.027344 446.054688 C 691.269531 445.921875 691.5 445.773438 691.722656 445.613281 C 691.945312 445.453125 692.15625 445.277344 692.355469 445.089844 C 692.558594 444.902344 692.746094 444.699219 692.921875 444.488281 C 693.097656 444.277344 693.257812 444.054688 693.40625 443.824219 C 693.550781 443.589844 693.683594 443.351562 693.800781 443.101562 C 693.917969 442.855469 694.019531 442.597656 694.105469 442.335938 C 694.191406 442.074219 694.257812 441.808594 694.308594 441.539062 C 694.359375 441.269531 694.394531 441 694.414062 440.722656 C 694.429688 440.449219 694.429688 440.175781 694.414062 439.902344 C 694.394531 439.625 694.359375 439.355469 694.308594 439.085938 C 694.257812 438.816406 694.191406 438.550781 694.105469 438.289062 C 694.019531 438.027344 693.917969 437.773438 693.800781 437.523438 Z M 327.179688 165.117188 L 655.078125 165.117188 L 655.078125 378.066406 L 327.179688 378.066406 Z M 304.722656 433.761719 L 324.78125 391.171875 L 657.476562 391.171875 L 677.535156 433.761719 Z M 590.960938 278.707031 C 591.625 277.921875 592.261719 277.117188 592.875 276.292969 C 593.484375 275.46875 594.070312 274.625 594.632812 273.765625 C 595.191406 272.902344 595.722656 272.027344 596.226562 271.132812 C 596.730469 270.238281 597.207031 269.328125 597.652344 268.402344 C 598.097656 267.476562 598.515625 266.539062 598.90625 265.589844 C 599.292969 264.640625 599.652344 263.675781 599.980469 262.703125 C 600.308594 261.730469 600.605469 260.75 600.871094 259.757812 C 601.136719 258.765625 601.371094 257.765625 601.574219 256.761719 C 601.777344 255.753906 601.949219 254.742188 602.089844 253.726562 C 602.230469 252.707031 602.339844 251.6875 602.414062 250.664062 C 602.492188 249.640625 602.535156 248.613281 602.546875 247.589844 C 602.558594 246.5625 602.539062 245.535156 602.484375 244.511719 C 602.433594 243.484375 602.347656 242.460938 602.230469 241.441406 C 602.113281 240.421875 601.964844 239.40625 601.785156 238.394531 C 601.605469 237.386719 601.394531 236.382812 601.148438 235.382812 C 600.90625 234.386719 600.632812 233.398438 600.324219 232.417969 C 600.019531 231.4375 599.683594 230.46875 599.316406 229.507812 C 598.953125 228.546875 598.554688 227.601562 598.128906 226.667969 C 597.703125 225.734375 597.25 224.8125 596.765625 223.90625 C 596.28125 223 595.769531 222.109375 595.230469 221.238281 C 594.691406 220.363281 594.125 219.507812 593.535156 218.667969 C 592.941406 217.832031 592.320312 217.011719 591.675781 216.210938 C 591.03125 215.410156 590.363281 214.632812 589.671875 213.875 C 588.976562 213.117188 588.261719 212.382812 587.523438 211.667969 C 586.78125 210.957031 586.019531 210.265625 585.238281 209.601562 C 584.457031 208.9375 583.652344 208.296875 582.832031 207.679688 C 582.007812 207.066406 581.167969 206.476562 580.304688 205.914062 C 579.445312 205.351562 578.570312 204.816406 577.675781 204.3125 C 576.785156 203.804688 575.875 203.324219 574.953125 202.875 C 574.027344 202.421875 573.09375 202.003906 572.140625 201.609375 C 571.191406 201.21875 570.230469 200.855469 569.257812 200.523438 C 568.285156 200.191406 567.304688 199.890625 566.3125 199.621094 C 565.320312 199.351562 564.324219 199.113281 563.316406 198.90625 C 562.308594 198.699219 561.296875 198.523438 560.28125 198.378906 C 559.261719 198.234375 558.242188 198.121094 557.21875 198.039062 C 556.195312 197.960938 555.167969 197.914062 554.140625 197.894531 C 553.113281 197.878906 552.085938 197.894531 551.058594 197.945312 C 550.03125 197.992188 549.007812 198.074219 547.988281 198.183594 C 546.964844 198.296875 545.949219 198.441406 544.9375 198.617188 C 543.925781 198.792969 542.917969 199 541.917969 199.242188 C 540.921875 199.480469 539.929688 199.75 538.945312 200.050781 C 537.964844 200.351562 536.992188 200.683594 536.03125 201.046875 C 535.070312 201.40625 534.121094 201.800781 533.183594 202.222656 C 532.246094 202.640625 531.324219 203.09375 530.414062 203.570312 C 529.503906 204.050781 528.613281 204.558594 527.734375 205.09375 C 526.859375 205.628906 526 206.191406 525.15625 206.78125 C 524.316406 207.367188 523.492188 207.984375 522.691406 208.625 C 521.886719 209.265625 521.105469 209.929688 520.34375 210.621094 C 519.582031 211.308594 518.84375 212.019531 518.128906 212.757812 C 517.410156 213.492188 516.71875 214.25 516.046875 215.03125 C 515.378906 215.808594 514.734375 216.609375 514.117188 217.425781 C 513.496094 218.246094 512.90625 219.085938 512.339844 219.941406 C 511.773438 220.796875 511.234375 221.671875 510.722656 222.5625 C 510.210938 223.453125 509.726562 224.359375 509.269531 225.277344 C 508.816406 226.199219 508.390625 227.132812 507.996094 228.082031 C 507.597656 229.027344 507.234375 229.988281 506.894531 230.957031 C 506.558594 231.925781 506.253906 232.90625 505.980469 233.898438 C 505.707031 234.886719 505.460938 235.882812 505.25 236.886719 C 505.039062 237.890625 504.859375 238.902344 504.710938 239.917969 C 504.5625 240.933594 504.445312 241.953125 504.359375 242.976562 C 504.273438 244 504.222656 245.023438 504.203125 246.050781 C 504.179688 247.078125 504.195312 248.105469 504.238281 249.128906 C 504.28125 250.15625 504.359375 251.179688 504.464844 252.199219 C 504.574219 253.222656 504.714844 254.238281 504.886719 255.25 C 505.058594 256.261719 505.261719 257.269531 505.496094 258.265625 C 505.730469 259.265625 505.996094 260.257812 506.296875 261.242188 C 506.59375 262.222656 506.921875 263.195312 507.277344 264.15625 C 507.636719 265.121094 508.023438 266.070312 508.441406 267.007812 C 508.859375 267.945312 509.308594 268.871094 509.78125 269.78125 C 510.257812 270.691406 510.761719 271.585938 511.292969 272.460938 C 511.828125 273.339844 512.386719 274.203125 512.972656 275.046875 C 513.558594 275.890625 514.167969 276.714844 514.808594 277.519531 C 515.445312 278.324219 516.105469 279.109375 516.792969 279.871094 C 517.480469 280.636719 518.191406 281.375 518.925781 282.09375 C 519.65625 282.816406 520.414062 283.511719 521.191406 284.183594 C 521.96875 284.855469 522.765625 285.5 523.582031 286.121094 C 524.398438 286.746094 525.234375 287.339844 526.089844 287.910156 C 526.945312 288.480469 527.816406 289.019531 528.707031 289.535156 C 529.597656 290.050781 530.5 290.539062 531.417969 290.996094 C 532.339844 291.453125 533.273438 291.882812 534.21875 292.28125 C 535.164062 292.683594 536.125 293.054688 537.09375 293.394531 C 538.0625 293.734375 539.042969 294.042969 540.03125 294.320312 C 541.019531 294.597656 542.015625 294.847656 543.019531 295.0625 C 544.027344 295.277344 545.035156 295.460938 546.050781 295.617188 C 547.070312 295.769531 548.089844 295.890625 549.113281 295.976562 C 550.136719 296.066406 551.160156 296.125 552.1875 296.148438 C 553.214844 296.171875 554.242188 296.164062 555.269531 296.125 C 556.296875 296.085938 557.320312 296.015625 558.34375 295.910156 C 559.367188 295.808594 560.382812 295.671875 561.398438 295.503906 C 562.410156 295.335938 563.417969 295.136719 564.421875 294.90625 C 565.421875 294.675781 566.414062 294.414062 567.398438 294.121094 C 568.382812 293.828125 569.359375 293.503906 570.324219 293.152344 C 571.289062 292.796875 572.242188 292.414062 573.179688 292 C 574.121094 291.585938 575.046875 291.144531 575.960938 290.671875 C 576.875 290.199219 577.769531 289.699219 578.652344 289.171875 C 579.535156 288.644531 580.398438 288.089844 581.246094 287.507812 L 610.867188 320.214844 C 611.15625 320.535156 611.472656 320.820312 611.820312 321.078125 C 612.164062 321.335938 612.53125 321.554688 612.921875 321.738281 C 613.3125 321.925781 613.714844 322.070312 614.132812 322.171875 C 614.550781 322.277344 614.972656 322.339844 615.402344 322.363281 C 615.832031 322.382812 616.261719 322.363281 616.6875 322.300781 C 617.113281 322.238281 617.527344 322.132812 617.933594 321.988281 C 618.339844 321.84375 618.726562 321.664062 619.097656 321.441406 C 619.464844 321.222656 619.8125 320.964844 620.128906 320.675781 C 620.449219 320.390625 620.738281 320.070312 620.992188 319.726562 C 621.25 319.382812 621.472656 319.015625 621.65625 318.625 C 621.839844 318.238281 621.984375 317.832031 622.089844 317.417969 C 622.195312 317 622.257812 316.574219 622.28125 316.144531 C 622.300781 315.714844 622.28125 315.289062 622.21875 314.863281 C 622.15625 314.4375 622.050781 314.023438 621.90625 313.617188 C 621.761719 313.210938 621.578125 312.824219 621.359375 312.457031 C 621.136719 312.085938 620.882812 311.742188 620.59375 311.421875 Z M 517.359375 247.019531 C 517.359375 245.839844 517.417969 244.664062 517.535156 243.488281 C 517.648438 242.3125 517.824219 241.148438 518.054688 239.988281 C 518.285156 238.832031 518.570312 237.6875 518.914062 236.558594 C 519.257812 235.429688 519.652344 234.320312 520.105469 233.230469 C 520.558594 232.140625 521.0625 231.074219 521.621094 230.03125 C 522.175781 228.992188 522.78125 227.980469 523.4375 227 C 524.097656 226.019531 524.796875 225.070312 525.546875 224.160156 C 526.296875 223.246094 527.089844 222.371094 527.925781 221.539062 C 528.761719 220.703125 529.632812 219.910156 530.546875 219.164062 C 531.460938 218.414062 532.410156 217.710938 533.390625 217.054688 C 534.371094 216.402344 535.386719 215.792969 536.425781 215.238281 C 537.46875 214.683594 538.535156 214.179688 539.625 213.726562 C 540.71875 213.273438 541.828125 212.878906 542.960938 212.535156 C 544.089844 212.191406 545.234375 211.90625 546.394531 211.675781 C 547.550781 211.445312 548.71875 211.273438 549.894531 211.15625 C 551.070312 211.039062 552.25 210.984375 553.429688 210.984375 C 554.609375 210.984375 555.789062 211.039062 556.964844 211.15625 C 558.140625 211.273438 559.308594 211.445312 560.464844 211.675781 C 561.625 211.90625 562.769531 212.191406 563.898438 212.535156 C 565.03125 212.878906 566.140625 213.273438 567.234375 213.726562 C 568.324219 214.179688 569.390625 214.683594 570.433594 215.238281 C 571.472656 215.792969 572.484375 216.402344 573.46875 217.054688 C 574.449219 217.710938 575.398438 218.414062 576.3125 219.164062 C 577.222656 219.910156 578.097656 220.703125 578.933594 221.539062 C 579.769531 222.371094 580.5625 223.246094 581.3125 224.160156 C 582.0625 225.070312 582.761719 226.019531 583.417969 227 C 584.074219 227.980469 584.683594 228.992188 585.238281 230.03125 C 585.796875 231.074219 586.300781 232.140625 586.753906 233.230469 C 587.203125 234.320312 587.601562 235.429688 587.945312 236.558594 C 588.289062 237.6875 588.574219 238.832031 588.804688 239.988281 C 589.035156 241.148438 589.207031 242.3125 589.324219 243.488281 C 589.441406 244.664062 589.5 245.839844 589.5 247.019531 C 589.5 248.199219 589.441406 249.378906 589.324219 250.554688 C 589.207031 251.726562 589.035156 252.894531 588.804688 254.050781 C 588.574219 255.207031 588.289062 256.351562 587.945312 257.480469 C 587.601562 258.609375 587.203125 259.722656 586.753906 260.8125 C 586.300781 261.902344 585.796875 262.96875 585.238281 264.007812 C 584.683594 265.050781 584.074219 266.058594 583.417969 267.042969 C 582.761719 268.023438 582.0625 268.96875 581.3125 269.882812 C 580.5625 270.792969 579.769531 271.667969 578.933594 272.503906 C 578.097656 273.335938 577.222656 274.128906 576.3125 274.878906 C 575.398438 275.625 574.449219 276.328125 573.46875 276.984375 C 572.484375 277.640625 571.472656 278.246094 570.433594 278.800781 C 569.390625 279.359375 568.324219 279.863281 567.234375 280.316406 C 566.140625 280.765625 565.03125 281.164062 563.898438 281.507812 C 562.769531 281.847656 561.625 282.136719 560.464844 282.367188 C 559.308594 282.597656 558.140625 282.769531 556.964844 282.882812 C 555.789062 283 554.609375 283.058594 553.429688 283.058594 C 552.25 283.058594 551.070312 282.996094 549.894531 282.878906 C 548.71875 282.765625 547.554688 282.589844 546.394531 282.359375 C 545.238281 282.128906 544.09375 281.839844 542.964844 281.496094 C 541.835938 281.152344 540.722656 280.757812 539.632812 280.304688 C 538.542969 279.851562 537.476562 279.347656 536.433594 278.789062 C 535.394531 278.234375 534.382812 277.628906 533.402344 276.972656 C 532.417969 276.316406 531.472656 275.613281 530.558594 274.867188 C 529.644531 274.117188 528.773438 273.324219 527.9375 272.492188 C 527.101562 271.65625 526.308594 270.785156 525.558594 269.871094 C 524.8125 268.960938 524.109375 268.011719 523.453125 267.03125 C 522.796875 266.050781 522.1875 265.039062 521.632812 264 C 521.074219 262.960938 520.570312 261.894531 520.117188 260.804688 C 519.664062 259.714844 519.265625 258.605469 518.921875 257.476562 C 518.578125 256.347656 518.292969 255.207031 518.058594 254.046875 C 517.828125 252.890625 517.65625 251.726562 517.539062 250.550781 C 517.421875 249.378906 517.363281 248.199219 517.359375 247.019531 Z M 359.96875 214.257812 C 359.96875 213.828125 360.011719 213.402344 360.09375 212.980469 C 360.179688 212.558594 360.304688 212.148438 360.46875 211.75 C 360.632812 211.355469 360.835938 210.976562 361.074219 210.617188 C 361.3125 210.261719 361.585938 209.929688 361.890625 209.625 C 362.195312 209.320312 362.527344 209.050781 362.882812 208.8125 C 363.242188 208.570312 363.621094 208.371094 364.019531 208.207031 C 364.414062 208.039062 364.824219 207.917969 365.246094 207.832031 C 365.671875 207.75 366.097656 207.707031 366.527344 207.707031 L 468.175781 207.707031 C 468.605469 207.707031 469.03125 207.75 469.457031 207.832031 C 469.878906 207.917969 470.289062 208.039062 470.6875 208.207031 C 471.082031 208.371094 471.460938 208.570312 471.820312 208.8125 C 472.175781 209.050781 472.507812 209.320312 472.8125 209.625 C 473.117188 209.929688 473.390625 210.261719 473.628906 210.617188 C 473.867188 210.976562 474.070312 211.355469 474.234375 211.75 C 474.398438 212.148438 474.523438 212.558594 474.609375 212.980469 C 474.691406 213.402344 474.734375 213.828125 474.734375 214.257812 C 474.734375 214.6875 474.691406 215.117188 474.609375 215.539062 C 474.523438 215.960938 474.398438 216.367188 474.234375 216.765625 C 474.070312 217.164062 473.867188 217.542969 473.628906 217.898438 C 473.390625 218.257812 473.117188 218.589844 472.8125 218.890625 C 472.507812 219.195312 472.175781 219.46875 471.820312 219.707031 C 471.460938 219.945312 471.082031 220.148438 470.6875 220.3125 C 470.289062 220.476562 469.878906 220.601562 469.457031 220.683594 C 469.03125 220.769531 468.605469 220.8125 468.175781 220.8125 L 366.527344 220.8125 C 366.097656 220.8125 365.671875 220.769531 365.246094 220.683594 C 364.824219 220.601562 364.414062 220.476562 364.019531 220.3125 C 363.621094 220.148438 363.242188 219.945312 362.882812 219.707031 C 362.527344 219.46875 362.195312 219.195312 361.890625 218.890625 C 361.585938 218.589844 361.3125 218.257812 361.074219 217.898438 C 360.835938 217.542969 360.632812 217.164062 360.46875 216.765625 C 360.304688 216.367188 360.179688 215.960938 360.09375 215.539062 C 360.011719 215.117188 359.96875 214.6875 359.96875 214.257812 Z M 359.96875 269.953125 C 359.96875 269.523438 360.011719 269.097656 360.09375 268.675781 C 360.179688 268.253906 360.304688 267.84375 360.46875 267.445312 C 360.632812 267.046875 360.835938 266.671875 361.074219 266.3125 C 361.3125 265.957031 361.585938 265.625 361.890625 265.320312 C 362.195312 265.015625 362.527344 264.746094 362.882812 264.503906 C 363.242188 264.265625 363.621094 264.066406 364.019531 263.898438 C 364.414062 263.734375 364.824219 263.609375 365.246094 263.527344 C 365.671875 263.441406 366.097656 263.402344 366.527344 263.402344 L 468.175781 263.402344 C 468.605469 263.402344 469.03125 263.441406 469.457031 263.527344 C 469.878906 263.609375 470.289062 263.734375 470.6875 263.898438 C 471.082031 264.066406 471.460938 264.265625 471.820312 264.503906 C 472.175781 264.746094 472.507812 265.015625 472.8125 265.320312 C 473.117188 265.625 473.390625 265.957031 473.628906 266.3125 C 473.867188 266.671875 474.070312 267.046875 474.234375 267.445312 C 474.398438 267.84375 474.523438 268.253906 474.609375 268.675781 C 474.691406 269.097656 474.734375 269.523438 474.734375 269.953125 C 474.734375 270.382812 474.691406 270.808594 474.609375 271.230469 C 474.523438 271.652344 474.398438 272.0625 474.234375 272.460938 C 474.070312 272.859375 473.867188 273.234375 473.628906 273.59375 C 473.390625 273.953125 473.117188 274.28125 472.8125 274.585938 C 472.507812 274.890625 472.175781 275.164062 471.820312 275.402344 C 471.460938 275.640625 471.082031 275.84375 470.6875 276.007812 C 470.289062 276.171875 469.878906 276.296875 469.457031 276.378906 C 469.03125 276.464844 468.605469 276.503906 468.175781 276.503906 L 366.527344 276.503906 C 366.097656 276.503906 365.671875 276.464844 365.246094 276.378906 C 364.824219 276.296875 364.414062 276.171875 364.019531 276.007812 C 363.621094 275.84375 363.242188 275.640625 362.882812 275.402344 C 362.527344 275.164062 362.195312 274.890625 361.890625 274.585938 C 361.585938 274.28125 361.3125 273.953125 361.074219 273.59375 C 360.835938 273.234375 360.632812 272.859375 360.46875 272.460938 C 360.304688 272.0625 360.179688 271.652344 360.09375 271.230469 C 360.011719 270.808594 359.96875 270.382812 359.96875 269.953125 Z M 550.152344 325.648438 C 550.152344 326.078125 550.109375 326.503906 550.023438 326.925781 C 549.941406 327.347656 549.816406 327.757812 549.652344 328.15625 C 549.488281 328.550781 549.285156 328.929688 549.046875 329.289062 C 548.804688 329.644531 548.535156 329.976562 548.230469 330.28125 C 547.925781 330.585938 547.59375 330.855469 547.234375 331.097656 C 546.878906 331.335938 546.5 331.535156 546.101562 331.703125 C 545.703125 331.867188 545.292969 331.988281 544.871094 332.074219 C 544.449219 332.15625 544.023438 332.199219 543.59375 332.199219 L 366.527344 332.199219 C 366.097656 332.199219 365.671875 332.15625 365.246094 332.074219 C 364.824219 331.988281 364.414062 331.867188 364.019531 331.703125 C 363.621094 331.535156 363.242188 331.335938 362.882812 331.097656 C 362.527344 330.855469 362.195312 330.585938 361.890625 330.28125 C 361.585938 329.976562 361.3125 329.644531 361.074219 329.289062 C 360.835938 328.929688 360.632812 328.550781 360.46875 328.15625 C 360.304688 327.757812 360.179688 327.347656 360.09375 326.925781 C 360.011719 326.503906 359.96875 326.078125 359.96875 325.648438 C 359.96875 325.21875 360.011719 324.792969 360.09375 324.371094 C 360.179688 323.949219 360.304688 323.539062 360.46875 323.140625 C 360.632812 322.742188 360.835938 322.367188 361.074219 322.007812 C 361.3125 321.648438 361.585938 321.320312 361.890625 321.015625 C 362.195312 320.710938 362.527344 320.4375 362.882812 320.199219 C 363.242188 319.960938 363.621094 319.757812 364.019531 319.59375 C 364.414062 319.429688 364.824219 319.304688 365.246094 319.222656 C 365.671875 319.136719 366.097656 319.09375 366.527344 319.09375 L 543.59375 319.09375 C 544.023438 319.09375 544.449219 319.136719 544.871094 319.222656 C 545.292969 319.304688 545.703125 319.429688 546.101562 319.59375 C 546.5 319.757812 546.878906 319.960938 547.234375 320.199219 C 547.59375 320.4375 547.925781 320.710938 548.230469 321.015625 C 548.535156 321.320312 548.804688 321.648438 549.046875 322.007812 C 549.285156 322.367188 549.488281 322.742188 549.652344 323.140625 C 549.816406 323.539062 549.941406 323.949219 550.023438 324.371094 C 550.109375 324.792969 550.152344 325.21875 550.152344 325.648438 Z M 550.152344 325.648438 " fill-opacity="1" fill-rule="nonzero"/></g></svg>