<svg xmlns="http://www.w3.org/2000/svg" xmlns:xlink="http://www.w3.org/1999/xlink" width="1366" zoomAndPan="magnify" viewBox="0 0 1024.5 576" height="768" preserveAspectRatio="xMidYMid meet" version="1.0"><defs><clipPath id="e56206ab5e"><path d="M 361 110.421875 L 661 110.421875 L 661 458 L 361 458 Z M 361 110.421875 " clip-rule="nonzero"/></clipPath></defs><g clip-path="url(#e56206ab5e)"><path fill="#3dcbc5" d="M 577.066406 291.460938 C 574.320312 291.460938 571.625 291.597656 568.972656 291.824219 C 562.800781 281.453125 556.644531 271.097656 550.503906 260.753906 C 548.449219 257.234375 546.390625 253.761719 544.332031 250.289062 C 541.085938 244.804688 537.84375 239.324219 534.597656 233.886719 L 529.476562 225.25 C 528.8125 224.121094 528.460938 222.902344 528.425781 221.59375 C 528.378906 202.175781 528.289062 188.007812 528.289062 171.011719 L 528.378906 171.011719 C 540.90625 171.011719 548.402344 161.003906 548.402344 148.4375 L 548.332031 133.359375 C 548.332031 120.792969 540.832031 110.421875 528.308594 110.421875 L 446.84375 110.421875 C 446.097656 110.421875 445.351562 110.457031 444.609375 110.53125 C 443.871094 110.601562 443.132812 110.710938 442.402344 110.859375 C 441.671875 111.003906 440.949219 111.183594 440.234375 111.398438 C 439.519531 111.617188 438.820312 111.867188 438.128906 112.152344 C 437.441406 112.4375 436.769531 112.757812 436.109375 113.105469 C 435.453125 113.457031 434.816406 113.839844 434.195312 114.253906 C 433.574219 114.667969 432.976562 115.113281 432.398438 115.585938 C 431.824219 116.058594 431.273438 116.558594 430.746094 117.085938 C 430.21875 117.613281 429.71875 118.164062 429.246094 118.738281 C 428.769531 119.316406 428.328125 119.914062 427.914062 120.535156 C 427.5 121.152344 427.117188 121.792969 426.765625 122.449219 C 426.414062 123.105469 426.09375 123.777344 425.808594 124.46875 C 425.523438 125.15625 425.273438 125.855469 425.058594 126.570312 C 424.839844 127.285156 424.660156 128.003906 424.515625 128.738281 C 424.367188 129.46875 424.257812 130.203125 424.1875 130.945312 C 424.113281 131.6875 424.078125 132.429688 424.078125 133.175781 L 424.148438 148.253906 C 424.152344 148.945312 424.183594 149.632812 424.25 150.320312 C 424.3125 151.007812 424.410156 151.6875 424.535156 152.367188 C 424.660156 153.042969 424.820312 153.714844 425.007812 154.378906 C 425.195312 155.042969 425.414062 155.695312 425.660156 156.339844 C 425.90625 156.984375 426.183594 157.613281 426.488281 158.234375 C 426.792969 158.851562 427.128906 159.453125 427.488281 160.042969 C 427.847656 160.632812 428.234375 161.203125 428.648438 161.753906 C 429.058594 162.308594 429.496094 162.839844 429.957031 163.351562 C 430.417969 163.867188 430.902344 164.355469 431.40625 164.828125 C 431.914062 165.296875 432.441406 165.738281 432.984375 166.160156 C 433.53125 166.582031 434.097656 166.976562 434.679688 167.347656 C 435.261719 167.714844 435.859375 168.058594 436.476562 168.371094 C 437.089844 168.6875 437.714844 168.972656 438.355469 169.230469 C 438.996094 169.488281 439.644531 169.714844 440.308594 169.914062 C 440.96875 170.113281 441.636719 170.28125 442.3125 170.417969 C 442.988281 170.554688 443.667969 170.660156 444.355469 170.738281 C 444.355469 187.78125 444.308594 201.761719 444.21875 221.183594 C 444.203125 222.582031 443.882812 223.90625 443.257812 225.15625 C 438.734375 234.023438 434.160156 242.839844 429.636719 251.707031 C 426.894531 257.050781 424.105469 262.445312 421.363281 267.789062 C 410.4375 289.085938 399.496094 310.394531 388.539062 331.714844 L 363.53125 380.382812 C 362.851562 381.59375 362.332031 382.875 361.972656 384.21875 C 361.726562 385.285156 361.53125 386.359375 361.382812 387.441406 C 361.234375 388.527344 361.132812 389.613281 361.085938 390.707031 C 361.035156 391.796875 361.039062 392.890625 361.089844 393.984375 C 361.136719 395.074219 361.238281 396.164062 361.390625 397.246094 C 361.539062 398.328125 361.738281 399.402344 361.988281 400.46875 C 362.234375 401.535156 362.53125 402.585938 362.875 403.621094 C 363.21875 404.660156 363.609375 405.679688 364.046875 406.683594 C 364.484375 407.6875 364.96875 408.664062 365.496094 409.625 C 366.019531 410.582031 366.589844 411.515625 367.203125 412.421875 C 367.816406 413.328125 368.46875 414.203125 369.160156 415.050781 C 369.851562 415.898438 370.582031 416.710938 371.347656 417.492188 C 372.113281 418.273438 372.914062 419.015625 373.75 419.722656 C 374.582031 420.429688 375.449219 421.097656 376.34375 421.726562 C 377.238281 422.355469 378.160156 422.941406 379.109375 423.484375 C 380.058594 424.027344 381.03125 424.527344 382.023438 424.984375 C 383.019531 425.441406 384.03125 425.847656 385.0625 426.210938 C 385.496094 426.347656 385.90625 426.53125 386.296875 426.761719 C 386.480469 426.851562 386.710938 426.941406 386.894531 427.035156 L 512.925781 427.082031 C 514.03125 428.425781 515.175781 429.734375 516.363281 431.007812 C 517.550781 432.28125 518.777344 433.519531 520.042969 434.714844 C 521.308594 435.910156 522.609375 437.066406 523.945312 438.179688 C 525.28125 439.296875 526.652344 440.367188 528.058594 441.394531 C 529.464844 442.425781 530.898438 443.40625 532.367188 444.347656 C 533.832031 445.285156 535.328125 446.175781 536.851562 447.019531 C 538.375 447.863281 539.921875 448.660156 541.496094 449.40625 C 543.066406 450.152344 544.664062 450.847656 546.28125 451.496094 C 547.898438 452.140625 549.53125 452.738281 551.1875 453.28125 C 552.839844 453.824219 554.511719 454.316406 556.195312 454.753906 C 557.882812 455.191406 559.578125 455.578125 561.289062 455.910156 C 562.996094 456.242188 564.714844 456.519531 566.441406 456.742188 C 568.167969 456.964844 569.902344 457.136719 571.640625 457.25 C 573.378906 457.363281 575.117188 457.425781 576.859375 457.429688 C 578.597656 457.433594 580.339844 457.386719 582.078125 457.28125 C 583.816406 457.175781 585.550781 457.019531 587.277344 456.804688 C 589.003906 456.59375 590.726562 456.324219 592.4375 456.003906 C 594.148438 455.683594 595.847656 455.308594 597.535156 454.878906 C 599.222656 454.453125 600.898438 453.972656 602.554688 453.4375 C 604.210938 452.902344 605.851562 452.320312 607.472656 451.683594 C 609.09375 451.046875 610.691406 450.359375 612.269531 449.621094 C 613.847656 448.886719 615.398438 448.097656 616.929688 447.265625 C 618.457031 446.429688 619.957031 445.546875 621.429688 444.617188 C 622.902344 443.691406 624.34375 442.714844 625.753906 441.695312 C 627.164062 440.675781 628.542969 439.613281 629.886719 438.507812 C 631.230469 437.398438 632.539062 436.25 633.8125 435.0625 C 635.085938 433.875 636.316406 432.648438 637.511719 431.378906 C 638.707031 430.113281 639.859375 428.8125 640.972656 427.472656 C 642.085938 426.132812 643.15625 424.761719 644.183594 423.355469 C 645.207031 421.949219 646.191406 420.511719 647.125 419.042969 C 648.0625 417.574219 648.949219 416.082031 649.792969 414.554688 C 650.632812 413.03125 651.425781 411.484375 652.171875 409.910156 C 652.914062 408.335938 653.609375 406.742188 654.253906 405.125 C 654.898438 403.507812 655.488281 401.871094 656.03125 400.214844 C 656.570312 398.5625 657.058594 396.890625 657.496094 395.207031 C 657.929688 393.519531 658.3125 391.824219 658.640625 390.113281 C 658.96875 388.40625 659.246094 386.6875 659.464844 384.960938 C 659.6875 383.234375 659.851562 381.503906 659.964844 379.765625 C 660.074219 378.027344 660.132812 376.289062 660.132812 374.546875 C 660.136719 372.808594 660.085938 371.070312 659.976562 369.332031 C 659.871094 367.59375 659.707031 365.863281 659.492188 364.136719 C 659.273438 362.40625 659.003906 360.6875 658.679688 358.980469 C 658.355469 357.269531 657.976562 355.570312 657.546875 353.882812 C 657.113281 352.199219 656.628906 350.527344 656.09375 348.871094 C 655.558594 347.214844 654.96875 345.578125 654.328125 343.957031 C 653.6875 342.339844 653 340.742188 652.257812 339.167969 C 651.519531 337.589844 650.730469 336.039062 649.890625 334.515625 C 649.054688 332.988281 648.167969 331.492188 647.238281 330.019531 C 646.304688 328.550781 645.328125 327.109375 644.304688 325.703125 C 643.28125 324.292969 642.214844 322.917969 641.105469 321.578125 C 639.996094 320.234375 638.847656 318.929688 637.652344 317.660156 C 636.460938 316.390625 635.230469 315.160156 633.964844 313.96875 C 632.695312 312.777344 631.390625 311.625 630.046875 310.515625 C 628.707031 309.40625 627.332031 308.339844 625.921875 307.316406 C 624.511719 306.292969 623.074219 305.316406 621.605469 304.382812 C 620.132812 303.449219 618.636719 302.5625 617.109375 301.726562 C 615.582031 300.886719 614.03125 300.097656 612.457031 299.355469 C 610.882812 298.613281 609.285156 297.925781 607.664062 297.285156 C 606.046875 296.644531 604.40625 296.054688 602.75 295.515625 C 601.09375 294.980469 599.421875 294.492188 597.738281 294.0625 C 596.050781 293.628906 594.351562 293.25 592.640625 292.925781 C 590.929688 292.597656 589.210938 292.328125 587.484375 292.109375 C 585.753906 291.894531 584.023438 291.730469 582.285156 291.621094 C 580.546875 291.511719 578.804688 291.460938 577.066406 291.460938 Z M 456.117188 226.4375 C 456.921875 224.777344 457.347656 223.027344 457.398438 221.183594 C 457.445312 202.175781 457.488281 187.324219 457.535156 171.011719 C 457.804688 169.78125 457.839844 168.550781 457.632812 167.308594 C 457.425781 166.070312 457 164.910156 456.347656 163.835938 C 455.832031 163.082031 455.226562 162.414062 454.53125 161.828125 C 453.832031 161.242188 453.066406 160.761719 452.238281 160.386719 C 451.40625 160.011719 450.539062 159.757812 449.636719 159.621094 C 448.738281 159.484375 447.832031 159.472656 446.929688 159.585938 C 446.183594 159.585938 445.449219 159.515625 444.71875 159.371094 C 443.988281 159.222656 443.277344 159.007812 442.589844 158.722656 C 441.902344 158.441406 441.25 158.089844 440.632812 157.675781 C 440.011719 157.265625 439.4375 156.792969 438.914062 156.269531 C 438.386719 155.742188 437.917969 155.167969 437.503906 154.550781 C 437.089844 153.933594 436.738281 153.277344 436.457031 152.589844 C 436.171875 151.902344 435.957031 151.195312 435.808594 150.464844 C 435.664062 149.734375 435.59375 149 435.59375 148.253906 L 435.519531 133.175781 C 435.519531 132.433594 435.589844 131.695312 435.738281 130.964844 C 435.882812 130.234375 436.097656 129.527344 436.382812 128.839844 C 436.667969 128.152344 437.015625 127.5 437.429688 126.878906 C 437.84375 126.261719 438.3125 125.6875 438.839844 125.164062 C 439.367188 124.636719 439.9375 124.167969 440.558594 123.753906 C 441.175781 123.339844 441.828125 122.992188 442.519531 122.707031 C 443.207031 122.421875 443.914062 122.207031 444.644531 122.0625 C 445.375 121.917969 446.113281 121.84375 446.855469 121.84375 L 528.308594 121.84375 C 534.570312 121.84375 536.90625 127.097656 536.90625 133.359375 L 536.972656 148.4375 C 536.972656 154.699219 534.640625 159.585938 528.378906 159.585938 C 527.851562 159.425781 527.3125 159.304688 526.765625 159.230469 C 526.21875 159.152344 525.667969 159.121094 525.113281 159.128906 C 524.5625 159.140625 524.011719 159.195312 523.46875 159.296875 C 522.925781 159.394531 522.390625 159.535156 521.871094 159.71875 C 521.351562 159.902344 520.847656 160.128906 520.359375 160.390625 C 519.875 160.65625 519.414062 160.957031 518.976562 161.296875 C 518.539062 161.632812 518.132812 162.003906 517.753906 162.40625 C 517.375 162.8125 517.03125 163.242188 516.722656 163.699219 C 516.125 164.824219 515.761719 166.015625 515.632812 167.28125 C 515.503906 168.546875 515.621094 169.792969 515.984375 171.011719 C 516.035156 188.558594 516.128906 198.792969 516.261719 221.503906 C 516.308594 223.003906 516.707031 224.40625 517.453125 225.707031 C 524.128906 237.28125 530.832031 248.8125 537.566406 260.296875 C 535.515625 264.007812 533.03125 267.40625 530.117188 270.488281 C 516.8125 283.554688 511.28125 261.300781 506.390625 252.574219 C 505.730469 251.207031 504.945312 249.910156 504.039062 248.6875 C 503.132812 247.46875 502.121094 246.34375 501 245.3125 C 499.882812 244.285156 498.675781 243.371094 497.382812 242.570312 C 496.089844 241.769531 494.730469 241.101562 493.3125 240.558594 C 492.292969 240.320312 491.265625 240.152344 490.222656 240.058594 C 489.183594 239.964844 488.140625 239.941406 487.09375 239.996094 C 486.050781 240.046875 485.015625 240.171875 483.988281 240.367188 C 482.960938 240.5625 481.953125 240.832031 480.964844 241.167969 C 479.976562 241.507812 479.015625 241.910156 478.082031 242.382812 C 477.152344 242.855469 476.253906 243.390625 475.398438 243.988281 C 474.539062 244.585938 473.726562 245.238281 472.960938 245.949219 C 472.195312 246.660156 471.484375 247.421875 470.824219 248.234375 C 463.96875 255.589844 460.765625 269.023438 450.390625 272.3125 C 449.714844 272.550781 449.027344 272.734375 448.324219 272.867188 C 447.621094 272.996094 446.910156 273.074219 446.195312 273.101562 C 445.480469 273.125 444.769531 273.097656 444.058594 273.011719 C 443.347656 272.929688 442.648438 272.792969 441.957031 272.605469 C 441.265625 272.417969 440.59375 272.179688 439.941406 271.886719 C 439.289062 271.597656 438.660156 271.261719 438.058594 270.875 C 437.453125 270.492188 436.882812 270.0625 436.347656 269.589844 C 435.808594 269.121094 435.308594 268.613281 434.847656 268.066406 C 441.972656 254.175781 449.019531 240.328125 456.117188 226.4375 Z M 461.191406 413.964844 C 454.0625 413.964844 446.929688 413.921875 439.84375 413.921875 C 431.339844 413.875 422.65625 413.828125 413.96875 413.828125 C 407.753906 413.828125 401.488281 413.875 395.273438 413.921875 C 393.753906 413.941406 392.253906 413.789062 390.773438 413.457031 C 389.292969 413.128906 387.867188 412.632812 386.503906 411.96875 C 385.136719 411.308594 383.867188 410.496094 382.691406 409.535156 C 381.515625 408.578125 380.46875 407.496094 379.546875 406.289062 C 378.425781 405.015625 377.464844 403.628906 376.664062 402.128906 C 375.867188 400.632812 375.25 399.0625 374.820312 397.417969 C 374.386719 395.777344 374.148438 394.109375 374.101562 392.410156 C 374.058594 390.714844 374.210938 389.035156 374.558594 387.371094 C 374.871094 385.980469 375.363281 384.65625 376.027344 383.398438 C 385.214844 365.421875 394.375 347.480469 403.5 329.570312 C 412.179688 312.511719 420.867188 295.480469 429.558594 278.484375 C 430.644531 279.375 431.796875 280.175781 433.015625 280.878906 C 434.230469 281.585938 435.5 282.1875 436.8125 282.6875 C 438.128906 283.1875 439.476562 283.578125 440.855469 283.859375 C 442.234375 284.140625 443.625 284.3125 445.03125 284.367188 C 446.4375 284.421875 447.835938 284.363281 449.234375 284.191406 C 450.628906 284.019531 452.003906 283.734375 453.355469 283.339844 C 454.703125 282.945312 456.015625 282.441406 457.285156 281.835938 C 458.550781 281.226562 459.765625 280.519531 460.917969 279.71875 C 469.96875 273.410156 472.390625 262.214844 480.210938 254.996094 C 488.074219 247.683594 493.742188 252.710938 497.625 260.386719 C 503.84375 272.863281 511.066406 291.734375 529.078125 284.789062 C 532.21875 283.378906 535.054688 281.515625 537.597656 279.195312 C 540.136719 276.875 542.25 274.214844 543.933594 271.21875 C 548.273438 278.804688 552.710938 286.34375 557.101562 293.882812 C 554.871094 294.441406 552.671875 295.089844 550.496094 295.828125 C 548.320312 296.570312 546.179688 297.398438 544.070312 298.316406 C 541.964844 299.230469 539.898438 300.234375 537.875 301.324219 C 535.851562 302.410156 533.878906 303.582031 531.949219 304.832031 C 530.023438 306.082031 528.152344 307.414062 526.335938 308.820312 C 524.519531 310.226562 522.765625 311.703125 521.070312 313.257812 C 519.375 314.808594 517.75 316.425781 516.1875 318.113281 C 514.628906 319.800781 513.140625 321.546875 511.726562 323.359375 C 510.3125 325.167969 508.972656 327.03125 507.710938 328.953125 C 506.449219 330.871094 505.273438 332.839844 504.175781 334.859375 C 503.078125 336.878906 502.0625 338.9375 501.136719 341.039062 C 500.210938 343.140625 499.371094 345.277344 498.621094 347.449219 C 497.871094 349.617188 497.210938 351.816406 496.644531 354.042969 C 496.078125 356.269531 495.601562 358.511719 495.21875 360.777344 C 494.835938 363.042969 494.550781 365.320312 494.355469 367.609375 C 494.164062 369.898438 494.066406 372.191406 494.0625 374.488281 C 494.054688 381.390625 494.902344 388.1875 496.605469 394.882812 C 498.304688 401.574219 500.8125 407.949219 504.117188 414.011719 C 489.566406 414.011719 475.214844 413.964844 461.179688 413.964844 Z M 577.078125 446.042969 C 572.621094 446.046875 568.199219 445.640625 563.816406 444.816406 C 559.433594 443.992188 555.164062 442.769531 551.011719 441.148438 C 546.859375 439.527344 542.890625 437.53125 539.109375 435.167969 C 535.332031 432.800781 531.804688 430.105469 528.53125 427.082031 C 524.320312 423.164062 520.632812 418.808594 517.46875 414.011719 C 515.519531 411.105469 513.796875 408.070312 512.296875 404.910156 C 510.800781 401.746094 509.542969 398.492188 508.527344 395.140625 C 507.511719 391.792969 506.75 388.386719 506.242188 384.925781 C 505.734375 381.464844 505.480469 377.984375 505.488281 374.488281 C 505.492188 372.4375 505.582031 370.390625 505.761719 368.347656 C 505.9375 366.304688 506.203125 364.277344 506.558594 362.257812 C 506.910156 360.238281 507.347656 358.234375 507.871094 356.253906 C 508.394531 354.273438 509.003906 352.316406 509.695312 350.386719 C 510.386719 348.457031 511.160156 346.558594 512.011719 344.695312 C 512.867188 342.832031 513.800781 341.007812 514.8125 339.226562 C 515.820312 337.441406 516.90625 335.707031 518.066406 334.015625 C 519.226562 332.324219 520.457031 330.6875 521.757812 329.101562 C 523.058594 327.515625 524.421875 325.988281 525.851562 324.519531 C 527.285156 323.050781 528.777344 321.648438 530.328125 320.308594 C 531.878906 318.964844 533.484375 317.695312 535.144531 316.492188 C 536.804688 315.289062 538.515625 314.160156 540.273438 313.101562 C 542.03125 312.046875 543.828125 311.066406 545.671875 310.164062 C 547.511719 309.261719 549.390625 308.441406 551.300781 307.699219 C 553.214844 306.957031 555.152344 306.300781 557.121094 305.722656 C 559.089844 305.148438 561.078125 304.660156 563.089844 304.253906 C 567.222656 303.417969 571.394531 302.972656 575.609375 302.929688 C 576.066406 302.882812 576.570312 302.882812 577.078125 302.882812 C 578.25 302.882812 579.421875 302.910156 580.59375 302.96875 C 581.765625 303.023438 582.933594 303.109375 584.101562 303.226562 C 585.265625 303.339844 586.429688 303.480469 587.589844 303.652344 C 588.75 303.824219 589.902344 304.023438 591.054688 304.253906 C 592.203125 304.480469 593.347656 304.738281 594.484375 305.023438 C 595.621094 305.304688 596.753906 305.617188 597.875 305.957031 C 598.996094 306.296875 600.109375 306.664062 601.214844 307.058594 C 602.316406 307.453125 603.410156 307.875 604.492188 308.324219 C 605.578125 308.769531 606.648438 309.246094 607.707031 309.746094 C 608.769531 310.246094 609.816406 310.773438 610.851562 311.324219 C 611.882812 311.875 612.902344 312.453125 613.910156 313.054688 C 614.914062 313.65625 615.90625 314.285156 616.878906 314.933594 C 617.855469 315.585938 618.8125 316.261719 619.753906 316.957031 C 620.699219 317.65625 621.621094 318.375 622.527344 319.117188 C 623.433594 319.863281 624.324219 320.628906 625.191406 321.414062 C 626.058594 322.199219 626.910156 323.007812 627.738281 323.835938 C 628.566406 324.664062 629.375 325.511719 630.164062 326.382812 C 630.949219 327.25 631.714844 328.136719 632.460938 329.042969 C 633.203125 329.949219 633.925781 330.871094 634.625 331.8125 C 635.324219 332.753906 635.996094 333.710938 636.648438 334.683594 C 637.300781 335.660156 637.929688 336.648438 638.53125 337.652344 C 639.132812 338.660156 639.710938 339.679688 640.265625 340.710938 C 640.816406 341.746094 641.34375 342.792969 641.84375 343.851562 C 642.347656 344.910156 642.820312 345.980469 643.269531 347.0625 C 643.71875 348.144531 644.140625 349.238281 644.535156 350.34375 C 644.929688 351.445312 645.300781 352.558594 645.640625 353.679688 C 645.980469 354.800781 646.292969 355.929688 646.578125 357.066406 C 646.863281 358.203125 647.121094 359.34375 647.347656 360.496094 C 647.578125 361.644531 647.777344 362.796875 647.949219 363.957031 C 648.121094 365.117188 648.265625 366.277344 648.378906 367.445312 C 648.496094 368.613281 648.582031 369.78125 648.640625 370.949219 C 648.695312 372.121094 648.726562 373.292969 648.726562 374.464844 C 648.726562 375.636719 648.695312 376.804688 648.640625 377.976562 C 648.582031 379.148438 648.496094 380.316406 648.378906 381.480469 C 648.265625 382.648438 648.121094 383.808594 647.949219 384.96875 C 647.777344 386.128906 647.578125 387.28125 647.347656 388.433594 C 647.121094 389.582031 646.863281 390.722656 646.578125 391.859375 C 646.292969 392.996094 645.980469 394.125 645.640625 395.25 C 645.300781 396.371094 644.929688 397.480469 644.535156 398.585938 C 644.140625 399.6875 643.71875 400.78125 643.269531 401.863281 C 642.820312 402.945312 642.347656 404.015625 641.84375 405.078125 C 641.34375 406.136719 640.816406 407.183594 640.265625 408.214844 C 639.710938 409.25 639.132812 410.269531 638.53125 411.273438 C 637.929688 412.277344 637.300781 413.269531 636.648438 414.242188 C 635.996094 415.214844 635.324219 416.171875 634.625 417.113281 C 633.925781 418.054688 633.203125 418.980469 632.460938 419.886719 C 631.714844 420.789062 630.949219 421.675781 630.164062 422.546875 C 629.375 423.414062 628.566406 424.261719 627.738281 425.089844 C 626.910156 425.917969 626.058594 426.726562 625.191406 427.511719 C 624.324219 428.300781 623.433594 429.066406 622.527344 429.808594 C 621.621094 430.550781 620.699219 431.269531 619.753906 431.96875 C 618.8125 432.667969 617.855469 433.339844 616.878906 433.992188 C 615.90625 434.644531 614.914062 435.269531 613.910156 435.871094 C 612.902344 436.472656 611.882812 437.050781 610.851562 437.601562 C 609.816406 438.15625 608.769531 438.679688 607.707031 439.179688 C 606.648438 439.683594 605.578125 440.15625 604.492188 440.605469 C 603.410156 441.050781 602.316406 441.472656 601.214844 441.867188 C 600.109375 442.261719 598.996094 442.628906 597.875 442.96875 C 596.753906 443.308594 595.621094 443.621094 594.484375 443.90625 C 593.347656 444.191406 592.203125 444.445312 591.054688 444.675781 C 589.902344 444.902344 588.75 445.101562 587.589844 445.273438 C 586.429688 445.445312 585.265625 445.585938 584.101562 445.703125 C 582.933594 445.816406 581.765625 445.902344 580.59375 445.957031 C 579.421875 446.015625 578.25 446.042969 577.078125 446.042969 Z M 618.175781 343.1875 C 618.46875 343.429688 618.734375 343.699219 618.976562 343.992188 C 619.21875 344.289062 619.429688 344.605469 619.605469 344.941406 C 619.785156 345.277344 619.929688 345.628906 620.042969 345.992188 C 620.152344 346.355469 620.226562 346.726562 620.265625 347.105469 C 620.304688 347.484375 620.304688 347.863281 620.269531 348.246094 C 620.234375 348.625 620.160156 348.996094 620.050781 349.359375 C 619.941406 349.726562 619.800781 350.078125 619.625 350.414062 C 619.445312 350.75 619.238281 351.070312 619 351.363281 C 618.769531 351.683594 618.496094 351.960938 618.175781 352.1875 C 616.300781 354.0625 613.417969 356.984375 609.898438 360.457031 C 607.25 363.152344 604.183594 366.214844 600.988281 369.414062 L 565.328125 405.054688 C 565.085938 405.339844 564.8125 405.601562 564.515625 405.832031 C 564.21875 406.066406 563.902344 406.265625 563.566406 406.433594 C 563.230469 406.605469 562.882812 406.738281 562.519531 406.839844 C 562.15625 406.941406 561.785156 407.003906 561.410156 407.03125 C 561.035156 407.0625 560.660156 407.050781 560.285156 407.003906 C 559.910156 406.957031 559.546875 406.875 559.1875 406.757812 C 558.832031 406.636719 558.488281 406.484375 558.160156 406.300781 C 557.832031 406.113281 557.527344 405.898438 557.242188 405.648438 C 557.035156 405.464844 556.835938 405.265625 556.648438 405.054688 C 552.808594 401.308594 539.644531 388.101562 535.847656 384.265625 C 535.570312 384.011719 535.320312 383.734375 535.097656 383.433594 C 534.875 383.132812 534.679688 382.8125 534.519531 382.472656 C 534.359375 382.132812 534.230469 381.78125 534.140625 381.417969 C 534.046875 381.054688 533.988281 380.6875 533.96875 380.3125 C 533.949219 379.9375 533.964844 379.5625 534.015625 379.191406 C 534.066406 378.820312 534.15625 378.457031 534.277344 378.101562 C 534.398438 377.75 534.554688 377.410156 534.742188 377.085938 C 534.933594 376.761719 535.152344 376.457031 535.398438 376.175781 C 535.648438 375.894531 535.917969 375.636719 536.21875 375.410156 C 536.515625 375.179688 536.832031 374.984375 537.167969 374.816406 C 537.503906 374.648438 537.851562 374.515625 538.214844 374.417969 C 538.578125 374.316406 538.945312 374.253906 539.320312 374.226562 C 539.695312 374.199219 540.066406 374.207031 540.441406 374.253906 C 540.8125 374.296875 541.179688 374.378906 541.535156 374.496094 C 541.890625 374.613281 542.234375 374.761719 542.5625 374.945312 C 542.890625 375.128906 543.195312 375.339844 543.484375 375.582031 C 543.6875 375.742188 543.871094 375.925781 544.03125 376.132812 C 546.546875 378.597656 558.339844 390.480469 560.945312 393.082031 C 566.339844 387.738281 571.460938 382.574219 576.574219 377.410156 L 594.957031 359.085938 L 603.78125 350.222656 L 609.992188 344.054688 C 610.234375 343.757812 610.5 343.488281 610.792969 343.242188 C 611.085938 343 611.398438 342.785156 611.734375 342.605469 C 612.070312 342.421875 612.417969 342.273438 612.78125 342.160156 C 613.148438 342.046875 613.519531 341.972656 613.898438 341.929688 C 614.277344 341.890625 614.65625 341.886719 615.035156 341.921875 C 615.417969 341.957031 615.789062 342.027344 616.15625 342.136719 C 616.519531 342.242188 616.871094 342.386719 617.210938 342.5625 C 617.546875 342.738281 617.863281 342.945312 618.160156 343.1875 Z M 618.175781 343.1875 " fill-opacity="1" fill-rule="nonzero"/></g></svg>