<svg xmlns="http://www.w3.org/2000/svg" xmlns:xlink="http://www.w3.org/1999/xlink" width="1366" zoomAndPan="magnify" viewBox="0 0 1024.5 576" height="768" preserveAspectRatio="xMidYMid meet" version="1.0"><defs><clipPath id="56f10042ac"><path d="M 337.464844 199.394531 L 654.714844 199.394531 L 654.714844 429.644531 L 337.464844 429.644531 Z M 337.464844 199.394531 " clip-rule="nonzero"/></clipPath></defs><g clip-path="url(#56f10042ac)"><path fill="#3dcbc5" d="M 653.972656 422.113281 L 634.023438 379.75 L 634.023438 204.753906 C 634.023438 204.417969 633.992188 204.085938 633.925781 203.757812 C 633.859375 203.429688 633.761719 203.109375 633.632812 202.800781 C 633.507812 202.492188 633.347656 202.199219 633.164062 201.917969 C 632.976562 201.640625 632.765625 201.382812 632.527344 201.144531 C 632.289062 200.90625 632.03125 200.695312 631.753906 200.511719 C 631.472656 200.324219 631.179688 200.167969 630.871094 200.039062 C 630.558594 199.910156 630.238281 199.8125 629.910156 199.746094 C 629.582031 199.683594 629.25 199.648438 628.914062 199.648438 L 363.261719 199.648438 C 362.925781 199.648438 362.59375 199.683594 362.265625 199.746094 C 361.9375 199.8125 361.617188 199.910156 361.308594 200.039062 C 360.996094 200.167969 360.703125 200.324219 360.425781 200.511719 C 360.144531 200.695312 359.886719 200.90625 359.648438 201.144531 C 359.414062 201.382812 359.199219 201.640625 359.015625 201.917969 C 358.828125 202.199219 358.671875 202.492188 358.542969 202.800781 C 358.414062 203.109375 358.316406 203.429688 358.25 203.757812 C 358.1875 204.085938 358.152344 204.417969 358.152344 204.753906 L 358.152344 379.75 L 338.207031 422.113281 C 338.113281 422.308594 338.035156 422.503906 337.96875 422.710938 C 337.902344 422.914062 337.851562 423.121094 337.808594 423.328125 C 337.769531 423.539062 337.742188 423.753906 337.730469 423.964844 C 337.714844 424.179688 337.714844 424.394531 337.730469 424.605469 C 337.742188 424.820312 337.769531 425.03125 337.808594 425.242188 C 337.851562 425.453125 337.902344 425.660156 337.96875 425.863281 C 338.035156 426.066406 338.113281 426.265625 338.207031 426.460938 C 338.296875 426.652344 338.398438 426.839844 338.515625 427.023438 C 338.628906 427.203125 338.753906 427.375 338.890625 427.539062 C 339.027344 427.707031 339.175781 427.863281 339.332031 428.007812 C 339.488281 428.15625 339.652344 428.292969 339.824219 428.417969 C 340 428.542969 340.179688 428.65625 340.367188 428.761719 C 340.554688 428.863281 340.746094 428.953125 340.945312 429.035156 C 341.144531 429.113281 341.351562 429.179688 341.558594 429.230469 C 341.765625 429.285156 341.976562 429.324219 342.1875 429.351562 C 342.398438 429.378906 342.613281 429.390625 342.828125 429.390625 L 649.347656 429.390625 C 649.5625 429.390625 649.777344 429.378906 649.988281 429.351562 C 650.203125 429.324219 650.414062 429.285156 650.621094 429.230469 C 650.828125 429.179688 651.03125 429.113281 651.230469 429.035156 C 651.429688 428.953125 651.621094 428.863281 651.808594 428.761719 C 652 428.65625 652.179688 428.542969 652.351562 428.417969 C 652.527344 428.292969 652.691406 428.15625 652.847656 428.007812 C 653.003906 427.863281 653.148438 427.707031 653.285156 427.539062 C 653.421875 427.375 653.546875 427.203125 653.664062 427.023438 C 653.777344 426.839844 653.878906 426.652344 653.972656 426.460938 C 654.0625 426.265625 654.140625 426.066406 654.207031 425.863281 C 654.273438 425.660156 654.328125 425.453125 654.367188 425.242188 C 654.40625 425.03125 654.433594 424.820312 654.449219 424.605469 C 654.460938 424.394531 654.460938 424.179688 654.449219 423.964844 C 654.433594 423.753906 654.40625 423.539062 654.367188 423.328125 C 654.328125 423.121094 654.273438 422.914062 654.207031 422.710938 C 654.140625 422.503906 654.0625 422.308594 653.972656 422.113281 Z M 368.371094 209.859375 L 623.804688 209.859375 L 623.804688 375.785156 L 368.371094 375.785156 Z M 350.878906 419.179688 L 366.503906 385.996094 L 625.671875 385.996094 L 641.300781 419.179688 Z M 557.742188 236.664062 L 434.433594 236.664062 C 433.316406 236.664062 432.203125 236.722656 431.089844 236.832031 C 429.976562 236.941406 428.875 237.105469 427.777344 237.324219 C 426.683594 237.542969 425.601562 237.816406 424.53125 238.140625 C 423.460938 238.464844 422.410156 238.84375 421.378906 239.269531 C 420.347656 239.699219 419.335938 240.175781 418.351562 240.703125 C 417.367188 241.230469 416.410156 241.804688 415.480469 242.425781 C 414.550781 243.046875 413.65625 243.710938 412.789062 244.417969 C 411.925781 245.128906 411.101562 245.875 410.308594 246.667969 C 409.519531 247.457031 408.769531 248.28125 408.058594 249.144531 C 407.351562 250.007812 406.6875 250.90625 406.066406 251.832031 C 405.445312 252.761719 404.871094 253.71875 404.34375 254.703125 C 403.816406 255.6875 403.335938 256.695312 402.910156 257.726562 C 402.480469 258.757812 402.105469 259.808594 401.777344 260.878906 C 401.453125 261.945312 401.179688 263.027344 400.960938 264.125 C 400.742188 265.21875 400.578125 266.320312 400.46875 267.433594 C 400.359375 268.546875 400.300781 269.660156 400.300781 270.777344 L 400.300781 314.871094 C 400.300781 315.988281 400.359375 317.101562 400.46875 318.210938 C 400.578125 319.324219 400.742188 320.425781 400.960938 321.523438 C 401.179688 322.617188 401.453125 323.699219 401.777344 324.769531 C 402.105469 325.835938 402.480469 326.886719 402.910156 327.917969 C 403.335938 328.949219 403.816406 329.957031 404.34375 330.941406 C 404.871094 331.925781 405.445312 332.882812 406.066406 333.8125 C 406.6875 334.742188 407.351562 335.636719 408.058594 336.5 C 408.769531 337.363281 409.519531 338.191406 410.308594 338.980469 C 411.101562 339.769531 411.925781 340.519531 412.789062 341.226562 C 413.65625 341.9375 414.550781 342.601562 415.480469 343.222656 C 416.410156 343.84375 417.367188 344.417969 418.351562 344.941406 C 419.335938 345.46875 420.347656 345.949219 421.378906 346.375 C 422.410156 346.804688 423.460938 347.179688 424.53125 347.503906 C 425.601562 347.828125 426.683594 348.101562 427.777344 348.320312 C 428.875 348.539062 429.976562 348.703125 431.089844 348.816406 C 432.203125 348.925781 433.316406 348.980469 434.433594 348.980469 L 557.742188 348.980469 C 558.859375 348.980469 559.972656 348.925781 561.085938 348.816406 C 562.199219 348.703125 563.300781 348.539062 564.398438 348.320312 C 565.496094 348.101562 566.578125 347.828125 567.644531 347.503906 C 568.714844 347.179688 569.765625 346.804688 570.796875 346.375 C 571.832031 345.949219 572.839844 345.46875 573.824219 344.941406 C 574.8125 344.417969 575.769531 343.84375 576.695312 343.222656 C 577.625 342.601562 578.523438 341.9375 579.386719 341.226562 C 580.25 340.519531 581.078125 339.769531 581.867188 338.980469 C 582.65625 338.191406 583.40625 337.363281 584.117188 336.5 C 584.824219 335.636719 585.492188 334.742188 586.113281 333.8125 C 586.734375 332.882812 587.308594 331.925781 587.835938 330.941406 C 588.363281 329.957031 588.839844 328.949219 589.269531 327.917969 C 589.695312 326.886719 590.074219 325.835938 590.398438 324.769531 C 590.722656 323.699219 590.996094 322.617188 591.214844 321.523438 C 591.433594 320.425781 591.597656 319.324219 591.707031 318.210938 C 591.820312 317.101562 591.875 315.988281 591.875 314.871094 L 591.875 270.777344 C 591.875 269.660156 591.820312 268.546875 591.707031 267.433594 C 591.597656 266.320312 591.433594 265.21875 591.214844 264.125 C 590.996094 263.027344 590.722656 261.945312 590.398438 260.878906 C 590.074219 259.808594 589.695312 258.757812 589.269531 257.726562 C 588.839844 256.695312 588.363281 255.6875 587.835938 254.703125 C 587.308594 253.71875 586.734375 252.761719 586.113281 251.832031 C 585.492188 250.90625 584.824219 250.007812 584.117188 249.144531 C 583.40625 248.28125 582.65625 247.457031 581.867188 246.667969 C 581.078125 245.875 580.25 245.128906 579.386719 244.417969 C 578.523438 243.710938 577.625 243.046875 576.695312 242.425781 C 575.769531 241.804688 574.8125 241.230469 573.824219 240.703125 C 572.839844 240.175781 571.832031 239.699219 570.796875 239.269531 C 569.765625 238.84375 568.714844 238.464844 567.644531 238.140625 C 566.578125 237.816406 565.496094 237.542969 564.398438 237.324219 C 563.300781 237.105469 562.199219 236.941406 561.085938 236.832031 C 559.972656 236.722656 558.859375 236.664062 557.742188 236.664062 Z M 581.660156 314.871094 C 581.660156 315.652344 581.617188 316.433594 581.542969 317.210938 C 581.464844 317.992188 581.347656 318.761719 581.195312 319.53125 C 581.042969 320.296875 580.851562 321.054688 580.625 321.804688 C 580.394531 322.554688 580.132812 323.289062 579.832031 324.011719 C 579.53125 324.734375 579.195312 325.441406 578.828125 326.132812 C 578.457031 326.820312 578.054688 327.492188 577.621094 328.140625 C 577.183594 328.792969 576.71875 329.421875 576.222656 330.027344 C 575.726562 330.628906 575.199219 331.210938 574.644531 331.761719 C 574.09375 332.316406 573.511719 332.839844 572.90625 333.335938 C 572.300781 333.835938 571.675781 334.300781 571.023438 334.734375 C 570.371094 335.171875 569.703125 335.570312 569.011719 335.941406 C 568.320312 336.308594 567.613281 336.644531 566.890625 336.945312 C 566.167969 337.246094 565.429688 337.507812 564.683594 337.734375 C 563.933594 337.964844 563.175781 338.15625 562.40625 338.308594 C 561.636719 338.460938 560.863281 338.578125 560.085938 338.652344 C 559.304688 338.730469 558.523438 338.769531 557.742188 338.769531 L 434.433594 338.769531 C 433.652344 338.769531 432.871094 338.730469 432.089844 338.652344 C 431.3125 338.578125 430.539062 338.460938 429.769531 338.308594 C 429.003906 338.15625 428.246094 337.964844 427.496094 337.734375 C 426.746094 337.507812 426.007812 337.246094 425.285156 336.945312 C 424.5625 336.644531 423.855469 336.308594 423.164062 335.941406 C 422.476562 335.570312 421.804688 335.171875 421.152344 334.734375 C 420.503906 334.300781 419.875 333.835938 419.269531 333.335938 C 418.664062 332.839844 418.085938 332.316406 417.53125 331.761719 C 416.976562 331.210938 416.453125 330.628906 415.953125 330.027344 C 415.457031 329.421875 414.992188 328.792969 414.558594 328.140625 C 414.121094 327.492188 413.71875 326.820312 413.351562 326.132812 C 412.980469 325.441406 412.644531 324.734375 412.34375 324.011719 C 412.046875 323.289062 411.78125 322.554688 411.554688 321.804688 C 411.324219 321.054688 411.136719 320.296875 410.980469 319.53125 C 410.828125 318.761719 410.714844 317.992188 410.636719 317.210938 C 410.558594 316.433594 410.519531 315.652344 410.519531 314.871094 L 410.519531 270.777344 C 410.519531 269.992188 410.558594 269.210938 410.636719 268.433594 C 410.714844 267.65625 410.828125 266.882812 410.980469 266.113281 C 411.136719 265.347656 411.324219 264.589844 411.554688 263.839844 C 411.78125 263.09375 412.046875 262.355469 412.34375 261.632812 C 412.644531 260.910156 412.980469 260.203125 413.351562 259.515625 C 413.71875 258.824219 414.121094 258.152344 414.558594 257.503906 C 414.992188 256.851562 415.457031 256.226562 415.953125 255.621094 C 416.453125 255.015625 416.976562 254.4375 417.53125 253.882812 C 418.085938 253.328125 418.664062 252.804688 419.269531 252.308594 C 419.875 251.8125 420.503906 251.34375 421.152344 250.910156 C 421.804688 250.476562 422.476562 250.074219 423.164062 249.703125 C 423.855469 249.335938 424.5625 249 425.285156 248.699219 C 426.007812 248.402344 426.746094 248.136719 427.496094 247.910156 C 428.246094 247.683594 429.003906 247.492188 429.769531 247.339844 C 430.539062 247.183594 431.3125 247.070312 432.089844 246.992188 C 432.871094 246.914062 433.652344 246.875 434.433594 246.875 L 557.742188 246.875 C 558.523438 246.875 559.304688 246.914062 560.085938 246.992188 C 560.863281 247.070312 561.636719 247.183594 562.40625 247.339844 C 563.175781 247.492188 563.933594 247.683594 564.683594 247.910156 C 565.429688 248.136719 566.167969 248.402344 566.890625 248.699219 C 567.613281 249 568.320312 249.335938 569.011719 249.703125 C 569.703125 250.074219 570.371094 250.476562 571.023438 250.910156 C 571.675781 251.34375 572.300781 251.8125 572.90625 252.308594 C 573.511719 252.804688 574.09375 253.328125 574.644531 253.882812 C 575.199219 254.4375 575.726562 255.015625 576.222656 255.621094 C 576.71875 256.226562 577.183594 256.851562 577.621094 257.503906 C 578.054688 258.152344 578.457031 258.824219 578.828125 259.515625 C 579.195312 260.203125 579.53125 260.910156 579.832031 261.632812 C 580.132812 262.355469 580.394531 263.09375 580.625 263.839844 C 580.851562 264.589844 581.042969 265.347656 581.195312 266.113281 C 581.347656 266.882812 581.464844 267.65625 581.542969 268.433594 C 581.617188 269.210938 581.660156 269.992188 581.660156 270.777344 Z M 524.273438 289.902344 L 485.960938 266.757812 C 485.171875 266.28125 484.316406 266.035156 483.394531 266.019531 C 482.472656 266.007812 481.609375 266.226562 480.808594 266.679688 C 480.003906 267.128906 479.371094 267.753906 478.90625 268.550781 C 478.441406 269.34375 478.207031 270.203125 478.207031 271.125 L 478.207031 314.519531 C 478.207031 314.738281 478.222656 314.957031 478.25 315.175781 C 478.277344 315.394531 478.320312 315.605469 478.375 315.820312 C 478.433594 316.03125 478.5 316.238281 478.582031 316.441406 C 478.667969 316.644531 478.761719 316.839844 478.867188 317.03125 C 478.976562 317.222656 479.097656 317.40625 479.226562 317.582031 C 479.359375 317.757812 479.5 317.921875 479.65625 318.082031 C 479.808594 318.238281 479.96875 318.382812 480.140625 318.519531 C 480.3125 318.65625 480.492188 318.78125 480.679688 318.894531 C 480.867188 319.007812 481.0625 319.109375 481.265625 319.195312 C 481.464844 319.285156 481.671875 319.359375 481.878906 319.421875 C 482.089844 319.480469 482.304688 319.53125 482.519531 319.5625 C 482.738281 319.597656 482.957031 319.617188 483.175781 319.625 C 483.394531 319.628906 483.613281 319.621094 483.832031 319.601562 C 484.046875 319.578125 484.265625 319.542969 484.476562 319.492188 C 484.691406 319.441406 484.902344 319.378906 485.105469 319.304688 C 485.3125 319.226562 485.511719 319.136719 485.707031 319.035156 L 524.019531 298.785156 C 524.832031 298.351562 525.484375 297.746094 525.96875 296.964844 C 526.457031 296.1875 526.710938 295.335938 526.738281 294.417969 C 526.765625 293.496094 526.558594 292.632812 526.117188 291.828125 C 525.675781 291.019531 525.0625 290.378906 524.273438 289.902344 Z M 488.425781 306.046875 L 488.425781 280.175781 L 511.265625 293.972656 Z M 653.972656 422.113281 L 634.023438 379.75 L 634.023438 204.753906 C 634.023438 204.417969 633.992188 204.085938 633.925781 203.757812 C 633.859375 203.429688 633.761719 203.109375 633.632812 202.800781 C 633.507812 202.492188 633.347656 202.199219 633.164062 201.917969 C 632.976562 201.640625 632.765625 201.382812 632.527344 201.144531 C 632.289062 200.90625 632.03125 200.695312 631.753906 200.511719 C 631.472656 200.324219 631.179688 200.167969 630.871094 200.039062 C 630.558594 199.910156 630.238281 199.8125 629.910156 199.746094 C 629.582031 199.683594 629.25 199.648438 628.914062 199.648438 L 363.261719 199.648438 C 362.925781 199.648438 362.59375 199.683594 362.265625 199.746094 C 361.9375 199.8125 361.617188 199.910156 361.308594 200.039062 C 360.996094 200.167969 360.703125 200.324219 360.425781 200.511719 C 360.144531 200.695312 359.886719 200.90625 359.648438 201.144531 C 359.414062 201.382812 359.199219 201.640625 359.015625 201.917969 C 358.828125 202.199219 358.671875 202.492188 358.542969 202.800781 C 358.414062 203.109375 358.316406 203.429688 358.25 203.757812 C 358.1875 204.085938 358.152344 204.417969 358.152344 204.753906 L 358.152344 379.75 L 338.207031 422.113281 C 338.113281 422.308594 338.035156 422.503906 337.96875 422.710938 C 337.902344 422.914062 337.851562 423.121094 337.808594 423.328125 C 337.769531 423.539062 337.742188 423.753906 337.730469 423.964844 C 337.714844 424.179688 337.714844 424.394531 337.730469 424.605469 C 337.742188 424.820312 337.769531 425.03125 337.808594 425.242188 C 337.851562 425.453125 337.902344 425.660156 337.96875 425.863281 C 338.035156 426.066406 338.113281 426.265625 338.207031 426.460938 C 338.296875 426.652344 338.398438 426.839844 338.515625 427.023438 C 338.628906 427.203125 338.753906 427.375 338.890625 427.539062 C 339.027344 427.707031 339.175781 427.863281 339.332031 428.007812 C 339.488281 428.15625 339.652344 428.292969 339.824219 428.417969 C 340 428.542969 340.179688 428.65625 340.367188 428.761719 C 340.554688 428.863281 340.746094 428.953125 340.945312 429.035156 C 341.144531 429.113281 341.351562 429.179688 341.558594 429.230469 C 341.765625 429.285156 341.976562 429.324219 342.1875 429.351562 C 342.398438 429.378906 342.613281 429.390625 342.828125 429.390625 L 649.347656 429.390625 C 649.5625 429.390625 649.777344 429.378906 649.988281 429.351562 C 650.203125 429.324219 650.414062 429.285156 650.621094 429.230469 C 650.828125 429.179688 651.03125 429.113281 651.230469 429.035156 C 651.429688 428.953125 651.621094 428.863281 651.808594 428.761719 C 652 428.65625 652.179688 428.542969 652.351562 428.417969 C 652.527344 428.292969 652.691406 428.15625 652.847656 428.007812 C 653.003906 427.863281 653.148438 427.707031 653.285156 427.539062 C 653.421875 427.375 653.546875 427.203125 653.664062 427.023438 C 653.777344 426.839844 653.878906 426.652344 653.972656 426.460938 C 654.0625 426.265625 654.140625 426.066406 654.207031 425.863281 C 654.273438 425.660156 654.328125 425.453125 654.367188 425.242188 C 654.40625 425.03125 654.433594 424.820312 654.449219 424.605469 C 654.460938 424.394531 654.460938 424.179688 654.449219 423.964844 C 654.433594 423.753906 654.40625 423.539062 654.367188 423.328125 C 654.328125 423.121094 654.273438 422.914062 654.207031 422.710938 C 654.140625 422.503906 654.0625 422.308594 653.972656 422.113281 Z M 368.371094 209.859375 L 623.804688 209.859375 L 623.804688 375.785156 L 368.371094 375.785156 Z M 350.878906 419.179688 L 366.503906 385.996094 L 625.671875 385.996094 L 641.300781 419.179688 Z M 557.742188 236.664062 L 434.433594 236.664062 C 433.316406 236.664062 432.203125 236.722656 431.089844 236.832031 C 429.976562 236.941406 428.875 237.105469 427.777344 237.324219 C 426.683594 237.542969 425.601562 237.816406 424.53125 238.140625 C 423.460938 238.464844 422.410156 238.84375 421.378906 239.269531 C 420.347656 239.699219 419.335938 240.175781 418.351562 240.703125 C 417.367188 241.230469 416.410156 241.804688 415.480469 242.425781 C 414.550781 243.046875 413.65625 243.710938 412.789062 244.417969 C 411.925781 245.128906 411.101562 245.875 410.308594 246.667969 C 409.519531 247.457031 408.769531 248.28125 408.058594 249.144531 C 407.351562 250.007812 406.6875 250.90625 406.066406 251.832031 C 405.445312 252.761719 404.871094 253.71875 404.34375 254.703125 C 403.816406 255.6875 403.335938 256.695312 402.910156 257.726562 C 402.480469 258.757812 402.105469 259.808594 401.777344 260.878906 C 401.453125 261.945312 401.179688 263.027344 400.960938 264.125 C 400.742188 265.21875 400.578125 266.320312 400.46875 267.433594 C 400.359375 268.546875 400.300781 269.660156 400.300781 270.777344 L 400.300781 314.871094 C 400.300781 315.988281 400.359375 317.101562 400.46875 318.210938 C 400.578125 319.324219 400.742188 320.425781 400.960938 321.523438 C 401.179688 322.617188 401.453125 323.699219 401.777344 324.769531 C 402.105469 325.835938 402.480469 326.886719 402.910156 327.917969 C 403.335938 328.949219 403.816406 329.957031 404.34375 330.941406 C 404.871094 331.925781 405.445312 332.882812 406.066406 333.8125 C 406.6875 334.742188 407.351562 335.636719 408.058594 336.5 C 408.769531 337.363281 409.519531 338.191406 410.308594 338.980469 C 411.101562 339.769531 411.925781 340.519531 412.789062 341.226562 C 413.65625 341.9375 414.550781 342.601562 415.480469 343.222656 C 416.410156 343.84375 417.367188 344.417969 418.351562 344.941406 C 419.335938 345.46875 420.347656 345.949219 421.378906 346.375 C 422.410156 346.804688 423.460938 347.179688 424.53125 347.503906 C 425.601562 347.828125 426.683594 348.101562 427.777344 348.320312 C 428.875 348.539062 429.976562 348.703125 431.089844 348.816406 C 432.203125 348.925781 433.316406 348.980469 434.433594 348.980469 L 557.742188 348.980469 C 558.859375 348.980469 559.972656 348.925781 561.085938 348.816406 C 562.199219 348.703125 563.300781 348.539062 564.398438 348.320312 C 565.496094 348.101562 566.578125 347.828125 567.644531 347.503906 C 568.714844 347.179688 569.765625 346.804688 570.796875 346.375 C 571.832031 345.949219 572.839844 345.46875 573.824219 344.941406 C 574.8125 344.417969 575.769531 343.84375 576.695312 343.222656 C 577.625 342.601562 578.523438 341.9375 579.386719 341.226562 C 580.25 340.519531 581.078125 339.769531 581.867188 338.980469 C 582.65625 338.191406 583.40625 337.363281 584.117188 336.5 C 584.824219 335.636719 585.492188 334.742188 586.113281 333.8125 C 586.734375 332.882812 587.308594 331.925781 587.835938 330.941406 C 588.363281 329.957031 588.839844 328.949219 589.269531 327.917969 C 589.695312 326.886719 590.074219 325.835938 590.398438 324.769531 C 590.722656 323.699219 590.996094 322.617188 591.214844 321.523438 C 591.433594 320.425781 591.597656 319.324219 591.707031 318.210938 C 591.820312 317.101562 591.875 315.988281 591.875 314.871094 L 591.875 270.777344 C 591.875 269.660156 591.820312 268.546875 591.707031 267.433594 C 591.597656 266.320312 591.433594 265.21875 591.214844 264.125 C 590.996094 263.027344 590.722656 261.945312 590.398438 260.878906 C 590.074219 259.808594 589.695312 258.757812 589.269531 257.726562 C 588.839844 256.695312 588.363281 255.6875 587.835938 254.703125 C 587.308594 253.71875 586.734375 252.761719 586.113281 251.832031 C 585.492188 250.90625 584.824219 250.007812 584.117188 249.144531 C 583.40625 248.28125 582.65625 247.457031 581.867188 246.667969 C 581.078125 245.875 580.25 245.128906 579.386719 244.417969 C 578.523438 243.710938 577.625 243.046875 576.695312 242.425781 C 575.769531 241.804688 574.8125 241.230469 573.824219 240.703125 C 572.839844 240.175781 571.832031 239.699219 570.796875 239.269531 C 569.765625 238.84375 568.714844 238.464844 567.644531 238.140625 C 566.578125 237.816406 565.496094 237.542969 564.398438 237.324219 C 563.300781 237.105469 562.199219 236.941406 561.085938 236.832031 C 559.972656 236.722656 558.859375 236.664062 557.742188 236.664062 Z M 581.660156 314.871094 C 581.660156 315.652344 581.617188 316.433594 581.542969 317.210938 C 581.464844 317.992188 581.347656 318.761719 581.195312 319.53125 C 581.042969 320.296875 580.851562 321.054688 580.625 321.804688 C 580.394531 322.554688 580.132812 323.289062 579.832031 324.011719 C 579.53125 324.734375 579.195312 325.441406 578.828125 326.132812 C 578.457031 326.820312 578.054688 327.492188 577.621094 328.140625 C 577.183594 328.792969 576.71875 329.421875 576.222656 330.027344 C 575.726562 330.628906 575.199219 331.210938 574.644531 331.761719 C 574.09375 332.316406 573.511719 332.839844 572.90625 333.335938 C 572.300781 333.835938 571.675781 334.300781 571.023438 334.734375 C 570.371094 335.171875 569.703125 335.570312 569.011719 335.941406 C 568.320312 336.308594 567.613281 336.644531 566.890625 336.945312 C 566.167969 337.246094 565.429688 337.507812 564.683594 337.734375 C 563.933594 337.964844 563.175781 338.15625 562.40625 338.308594 C 561.636719 338.460938 560.863281 338.578125 560.085938 338.652344 C 559.304688 338.730469 558.523438 338.769531 557.742188 338.769531 L 434.433594 338.769531 C 433.652344 338.769531 432.871094 338.730469 432.089844 338.652344 C 431.3125 338.578125 430.539062 338.460938 429.769531 338.308594 C 429.003906 338.15625 428.246094 337.964844 427.496094 337.734375 C 426.746094 337.507812 426.007812 337.246094 425.285156 336.945312 C 424.5625 336.644531 423.855469 336.308594 423.164062 335.941406 C 422.476562 335.570312 421.804688 335.171875 421.152344 334.734375 C 420.503906 334.300781 419.875 333.835938 419.269531 333.335938 C 418.664062 332.839844 418.085938 332.316406 417.53125 331.761719 C 416.976562 331.210938 416.453125 330.628906 415.953125 330.027344 C 415.457031 329.421875 414.992188 328.792969 414.558594 328.140625 C 414.121094 327.492188 413.71875 326.820312 413.351562 326.132812 C 412.980469 325.441406 412.644531 324.734375 412.34375 324.011719 C 412.046875 323.289062 411.78125 322.554688 411.554688 321.804688 C 411.324219 321.054688 411.136719 320.296875 410.980469 319.53125 C 410.828125 318.761719 410.714844 317.992188 410.636719 317.210938 C 410.558594 316.433594 410.519531 315.652344 410.519531 314.871094 L 410.519531 270.777344 C 410.519531 269.992188 410.558594 269.210938 410.636719 268.433594 C 410.714844 267.65625 410.828125 266.882812 410.980469 266.113281 C 411.136719 265.347656 411.324219 264.589844 411.554688 263.839844 C 411.78125 263.09375 412.046875 262.355469 412.34375 261.632812 C 412.644531 260.910156 412.980469 260.203125 413.351562 259.515625 C 413.71875 258.824219 414.121094 258.152344 414.558594 257.503906 C 414.992188 256.851562 415.457031 256.226562 415.953125 255.621094 C 416.453125 255.015625 416.976562 254.4375 417.53125 253.882812 C 418.085938 253.328125 418.664062 252.804688 419.269531 252.308594 C 419.875 251.8125 420.503906 251.34375 421.152344 250.910156 C 421.804688 250.476562 422.476562 250.074219 423.164062 249.703125 C 423.855469 249.335938 424.5625 249 425.285156 248.699219 C 426.007812 248.402344 426.746094 248.136719 427.496094 247.910156 C 428.246094 247.683594 429.003906 247.492188 429.769531 247.339844 C 430.539062 247.183594 431.3125 247.070312 432.089844 246.992188 C 432.871094 246.914062 433.652344 246.875 434.433594 246.875 L 557.742188 246.875 C 558.523438 246.875 559.304688 246.914062 560.085938 246.992188 C 560.863281 247.070312 561.636719 247.183594 562.40625 247.339844 C 563.175781 247.492188 563.933594 247.683594 564.683594 247.910156 C 565.429688 248.136719 566.167969 248.402344 566.890625 248.699219 C 567.613281 249 568.320312 249.335938 569.011719 249.703125 C 569.703125 250.074219 570.371094 250.476562 571.023438 250.910156 C 571.675781 251.34375 572.300781 251.8125 572.90625 252.308594 C 573.511719 252.804688 574.09375 253.328125 574.644531 253.882812 C 575.199219 254.4375 575.726562 255.015625 576.222656 255.621094 C 576.71875 256.226562 577.183594 256.851562 577.621094 257.503906 C 578.054688 258.152344 578.457031 258.824219 578.828125 259.515625 C 579.195312 260.203125 579.53125 260.910156 579.832031 261.632812 C 580.132812 262.355469 580.394531 263.09375 580.625 263.839844 C 580.851562 264.589844 581.042969 265.347656 581.195312 266.113281 C 581.347656 266.882812 581.464844 267.65625 581.542969 268.433594 C 581.617188 269.210938 581.660156 269.992188 581.660156 270.777344 Z M 524.273438 289.902344 L 485.960938 266.757812 C 485.171875 266.28125 484.316406 266.035156 483.394531 266.019531 C 482.472656 266.007812 481.609375 266.226562 480.808594 266.679688 C 480.003906 267.128906 479.371094 267.753906 478.90625 268.550781 C 478.441406 269.34375 478.207031 270.203125 478.207031 271.125 L 478.207031 314.519531 C 478.207031 314.738281 478.222656 314.957031 478.25 315.175781 C 478.277344 315.394531 478.320312 315.605469 478.375 315.820312 C 478.433594 316.03125 478.5 316.238281 478.582031 316.441406 C 478.667969 316.644531 478.761719 316.839844 478.867188 317.03125 C 478.976562 317.222656 479.097656 317.40625 479.226562 317.582031 C 479.359375 317.757812 479.5 317.921875 479.65625 318.082031 C 479.808594 318.238281 479.96875 318.382812 480.140625 318.519531 C 480.3125 318.65625 480.492188 318.78125 480.679688 318.894531 C 480.867188 319.007812 481.0625 319.109375 481.265625 319.195312 C 481.464844 319.285156 481.671875 319.359375 481.878906 319.421875 C 482.089844 319.480469 482.304688 319.53125 482.519531 319.5625 C 482.738281 319.597656 482.957031 319.617188 483.175781 319.625 C 483.394531 319.628906 483.613281 319.621094 483.832031 319.601562 C 484.046875 319.578125 484.265625 319.542969 484.476562 319.492188 C 484.691406 319.441406 484.902344 319.378906 485.105469 319.304688 C 485.3125 319.226562 485.511719 319.136719 485.707031 319.035156 L 524.019531 298.785156 C 524.832031 298.351562 525.484375 297.746094 525.96875 296.964844 C 526.457031 296.1875 526.710938 295.335938 526.738281 294.417969 C 526.765625 293.496094 526.558594 292.632812 526.117188 291.828125 C 525.675781 291.019531 525.0625 290.378906 524.273438 289.902344 Z M 488.425781 306.046875 L 488.425781 280.175781 L 511.265625 293.972656 Z M 488.425781 306.046875 " fill-opacity="1" fill-rule="nonzero"/></g></svg>